<svg width="241" height="241" viewBox="0 0 241 241" fill="none" xmlns="http://www.w3.org/2000/svg">
<circle cx="120.5" cy="120.5" r="115.5" fill="#FFCA63" stroke="#FFB525" stroke-width="10"/>
<path d="M107.963 41.6335C113.352 32.3002 126.823 32.3002 132.212 41.6335L200.525 159.956C205.914 169.29 199.178 180.956 188.401 180.956H51.7736C40.9964 180.956 34.2607 169.29 39.6493 159.956L107.963 41.6335Z" fill="#9B1C3F"/>
<circle cx="120.136" cy="156.086" r="11.345" fill="#FCFCFC"/>
<path d="M108.446 82.0015C107.829 75.6524 112.819 70.1541 119.198 70.1541V70.1541C125.623 70.1541 130.628 75.7284 129.938 82.1163L124.753 130.135C124.433 133.105 121.926 135.356 118.938 135.356V135.356C115.927 135.356 113.408 133.07 113.117 130.073L108.446 82.0015Z" fill="#FCFCFC"/>
</svg>
