<svg width="330" height="330" viewBox="0 0 330 330" fill="none" xmlns="http://www.w3.org/2000/svg">
<path d="M140.375 174.44C146.849 174.44 153.324 174.42 159.798 174.444C177.552 174.51 195.306 174.607 213.06 174.651C214.31 174.654 215.077 174.823 214.96 176.395C214.306 185.129 212.402 193.382 206.904 200.344C203.919 204.124 200.249 206.825 195.758 208.206C194.207 208.683 193.416 209.434 193.67 211.188C193.761 211.817 193.689 212.474 193.682 213.119C193.661 215.321 193.149 215.871 191.103 215.904C188.986 215.938 188.569 215.53 188.388 213.245C188.135 210.075 188.136 210.118 185.06 210.155C174.402 210.283 163.743 210.426 153.084 210.451C150.199 210.458 147.305 210.134 144.429 209.827C143.044 209.679 142.438 210.076 142.573 211.564C142.624 212.138 142.604 212.724 142.567 213.302C142.424 215.505 141.851 215.998 139.595 215.903C137.767 215.826 137.215 215.177 137.193 213.078C137.152 209.174 137.128 209.233 133.626 207.691C125.783 204.241 120.873 197.903 118.402 189.632C117.133 185.387 116.764 180.846 116.031 176.431C115.801 175.042 116.205 174.406 117.808 174.429C125.329 174.536 132.853 174.477 140.375 174.477C140.375 174.465 140.375 174.453 140.375 174.441V174.44Z" fill="#09389C"/>
<path d="M165.081 170.657C149.317 170.657 133.553 170.659 117.789 170.652C116.922 170.652 116.041 170.66 115.191 170.516C113.502 170.23 112.159 168.664 112.201 167.162C112.245 165.558 113.73 164.04 115.486 163.874C116.287 163.799 117.098 163.829 117.905 163.829C145.77 163.827 173.636 163.828 201.502 163.828C203.302 163.828 204.204 162.932 204.206 161.14C204.207 151.589 204.283 142.037 204.155 132.489C204.12 129.826 203.66 127.131 203.068 124.527C202.58 122.384 200.411 121.205 198.308 121.486C196.415 121.739 195.863 122.647 196.53 124.435C197.307 126.521 197.752 128.612 197.057 130.842C196.458 132.766 195.312 133.708 193.615 132.748C189.53 130.435 185.546 127.905 181.721 125.174C180.073 123.997 180.262 121.951 182.052 120.981C183.902 119.979 186.083 119.614 188.108 118.934C188.938 118.655 189.966 118.504 190.515 117.92C194.155 114.057 198.44 113.131 203.237 115.061C208.036 116.991 210.603 120.888 210.75 125.977C211.089 137.769 211.149 149.571 211.227 161.37C211.239 163.187 211.618 164.133 213.589 163.851C214.125 163.774 214.743 163.809 215.237 164.01C216.709 164.61 217.921 165.727 217.79 167.349C217.658 168.987 216.496 170.196 214.783 170.509C213.876 170.675 212.928 170.65 211.999 170.651C196.36 170.659 180.72 170.656 165.081 170.656V170.657Z" fill="#09389C"/>
<path d="M176.314 130.405L174.189 132.228" stroke="#09389C" stroke-width="6" stroke-linecap="round"/>
<path d="M168.899 140.587L167.284 142.874" stroke="#09389C" stroke-width="6" stroke-linecap="round"/>
<path d="M183.987 135.059L182.612 137.498" stroke="#09389C" stroke-width="6" stroke-linecap="round"/>
<path d="M178.556 145.473L177.675 148.131" stroke="#09389C" stroke-width="6" stroke-linecap="round"/>
<path d="M191.491 138.995L190.74 141.692" stroke="#09389C" stroke-width="6" stroke-linecap="round"/>
<path d="M189.841 150.03L189.711 152.826" stroke="#09389C" stroke-width="6" stroke-linecap="round"/>
<circle cx="165" cy="165" r="102.161" transform="rotate(-39.7677 165 165)" stroke="#AAE1D7" stroke-width="30"/>
<path d="M246.557 102.3C280.36 142.918 269.988 209.73 229.577 243.36C189.167 276.99 121.488 274.918 87.6857 234.3" stroke="#09389C" stroke-width="33" stroke-linecap="round"/>
</svg>
