<svg width="199" height="199" viewBox="0 0 199 199" fill="none" xmlns="http://www.w3.org/2000/svg">
<mask id="mask0_160_2" style="mask-type:luminance" maskUnits="userSpaceOnUse" x="5" y="5" width="189" height="189">
<path d="M99.0046 193.009C150.922 193.009 193.009 150.922 193.009 99.0046C193.009 47.0873 150.922 5 99.0046 5C47.0873 5 5 47.0873 5 99.0046C5 150.922 47.0873 193.009 99.0046 193.009Z" fill="white"/>
</mask>
<g mask="url(#mask0_160_2)">
<path d="M99.0571 193.009C150.974 193.009 193.062 150.922 193.062 99.0046C193.062 47.0873 150.974 5 99.0571 5C47.1397 5 5.05243 47.0873 5.05243 99.0046C5.05243 150.922 47.1397 193.009 99.0571 193.009Z" fill="#09389C"/>
<path d="M167.636 193.009V175.85C167.636 156.899 152.274 141.536 133.322 141.536H64.6905C45.7386 141.536 30.3764 156.899 30.3764 175.85V193.009" fill="white"/>
<path d="M99.0047 114.951C116.79 114.951 131.208 100.533 131.208 82.7476C131.208 64.9625 116.79 50.5447 99.0047 50.5447C81.2195 50.5447 66.8018 64.9625 66.8018 82.7476C66.8018 100.533 81.2195 114.951 99.0047 114.951Z" fill="white"/>
</g>
<path d="M99.0046 193.009C150.922 193.009 193.009 150.922 193.009 99.0046C193.009 47.0873 150.922 5 99.0046 5C47.0873 5 5 47.0873 5 99.0046C5 150.922 47.0873 193.009 99.0046 193.009Z" stroke="#09389C" stroke-width="10" stroke-miterlimit="10"/>
</svg>
