<svg width="278" height="79" viewBox="0 0 278 79" fill="none" xmlns="http://www.w3.org/2000/svg">
<rect x="0.672363" y="0.982788" width="276.655" height="77.1207" rx="14.5" fill="#09389C"/>
<path d="M46.8619 25.5718C46.8619 24.2118 47.1686 22.9918 47.7819 21.9118C48.3953 20.8184 49.2286 19.9651 50.2819 19.3518C51.3486 18.7384 52.5286 18.4318 53.8219 18.4318C55.3419 18.4318 56.6686 18.7984 57.8019 19.5318C58.9353 20.2651 59.7619 21.3051 60.2819 22.6518H58.1019C57.7153 21.8118 57.1553 21.1651 56.4219 20.7118C55.7019 20.2584 54.8353 20.0318 53.8219 20.0318C52.8486 20.0318 51.9753 20.2584 51.2019 20.7118C50.4286 21.1651 49.8219 21.8118 49.3819 22.6518C48.9419 23.4784 48.7219 24.4518 48.7219 25.5718C48.7219 26.6784 48.9419 27.6518 49.3819 28.4918C49.8219 29.3184 50.4286 29.9584 51.2019 30.4118C51.9753 30.8651 52.8486 31.0918 53.8219 31.0918C54.8353 31.0918 55.7019 30.8718 56.4219 30.4318C57.1553 29.9784 57.7153 29.3318 58.1019 28.4918H60.2819C59.7619 29.8251 58.9353 30.8584 57.8019 31.5918C56.6686 32.3118 55.3419 32.6718 53.8219 32.6718C52.5286 32.6718 51.3486 32.3718 50.2819 31.7718C49.2286 31.1584 48.3953 30.3118 47.7819 29.2318C47.1686 28.1518 46.8619 26.9318 46.8619 25.5718ZM67.7712 32.7318C66.7445 32.7318 65.8112 32.4984 64.9712 32.0318C64.1445 31.5651 63.4912 30.9051 63.0112 30.0518C62.5445 29.1851 62.3112 28.1851 62.3112 27.0518C62.3112 25.9318 62.5512 24.9451 63.0312 24.0918C63.5245 23.2251 64.1912 22.5651 65.0312 22.1118C65.8712 21.6451 66.8112 21.4118 67.8512 21.4118C68.8912 21.4118 69.8312 21.6451 70.6712 22.1118C71.5112 22.5651 72.1712 23.2184 72.6512 24.0718C73.1445 24.9251 73.3912 25.9184 73.3912 27.0518C73.3912 28.1851 73.1378 29.1851 72.6312 30.0518C72.1378 30.9051 71.4645 31.5651 70.6112 32.0318C69.7578 32.4984 68.8112 32.7318 67.7712 32.7318ZM67.7712 31.1318C68.4245 31.1318 69.0378 30.9784 69.6112 30.6718C70.1845 30.3651 70.6445 29.9051 70.9912 29.2918C71.3512 28.6784 71.5312 27.9318 71.5312 27.0518C71.5312 26.1718 71.3578 25.4251 71.0112 24.8118C70.6645 24.1984 70.2112 23.7451 69.6512 23.4518C69.0912 23.1451 68.4845 22.9918 67.8312 22.9918C67.1645 22.9918 66.5512 23.1451 65.9912 23.4518C65.4445 23.7451 65.0045 24.1984 64.6712 24.8118C64.3378 25.4251 64.1712 26.1718 64.1712 27.0518C64.1712 27.9451 64.3312 28.6984 64.6512 29.3118C64.9845 29.9251 65.4245 30.3851 65.9712 30.6918C66.5178 30.9851 67.1178 31.1318 67.7712 31.1318ZM88.9641 21.3918C89.8175 21.3918 90.5775 21.5718 91.2441 21.9318C91.9108 22.2784 92.4375 22.8051 92.8241 23.5118C93.2108 24.2184 93.4041 25.0784 93.4041 26.0918V32.5518H91.6041V26.3518C91.6041 25.2584 91.3308 24.4251 90.7841 23.8518C90.2508 23.2651 89.5241 22.9718 88.6041 22.9718C87.6575 22.9718 86.9041 23.2784 86.3441 23.8918C85.7841 24.4918 85.5041 25.3651 85.5041 26.5118V32.5518H83.7041V26.3518C83.7041 25.2584 83.4308 24.4251 82.8841 23.8518C82.3508 23.2651 81.6241 22.9718 80.7041 22.9718C79.7575 22.9718 79.0041 23.2784 78.4441 23.8918C77.8841 24.4918 77.6041 25.3651 77.6041 26.5118V32.5518H75.7841V21.5918H77.6041V23.1718C77.9641 22.5984 78.4441 22.1584 79.0441 21.8518C79.6575 21.5451 80.3308 21.3918 81.0641 21.3918C81.9841 21.3918 82.7975 21.5984 83.5041 22.0118C84.2108 22.4251 84.7375 23.0318 85.0841 23.8318C85.3908 23.0584 85.8975 22.4584 86.6041 22.0318C87.3108 21.6051 88.0975 21.3918 88.9641 21.3918ZM101.17 32.7318C100.143 32.7318 99.2096 32.4984 98.3696 32.0318C97.5429 31.5651 96.8896 30.9051 96.4096 30.0518C95.9429 29.1851 95.7096 28.1851 95.7096 27.0518C95.7096 25.9318 95.9496 24.9451 96.4296 24.0918C96.9229 23.2251 97.5896 22.5651 98.4296 22.1118C99.2696 21.6451 100.21 21.4118 101.25 21.4118C102.29 21.4118 103.23 21.6451 104.07 22.1118C104.91 22.5651 105.57 23.2184 106.05 24.0718C106.543 24.9251 106.79 25.9184 106.79 27.0518C106.79 28.1851 106.536 29.1851 106.03 30.0518C105.536 30.9051 104.863 31.5651 104.01 32.0318C103.156 32.4984 102.21 32.7318 101.17 32.7318ZM101.17 31.1318C101.823 31.1318 102.436 30.9784 103.01 30.6718C103.583 30.3651 104.043 29.9051 104.39 29.2918C104.75 28.6784 104.93 27.9318 104.93 27.0518C104.93 26.1718 104.756 25.4251 104.41 24.8118C104.063 24.1984 103.61 23.7451 103.05 23.4518C102.49 23.1451 101.883 22.9918 101.23 22.9918C100.563 22.9918 99.9496 23.1451 99.3896 23.4518C98.8429 23.7451 98.4029 24.1984 98.0696 24.8118C97.7363 25.4251 97.5696 26.1718 97.5696 27.0518C97.5696 27.9451 97.7296 28.6984 98.0496 29.3118C98.3829 29.9251 98.8229 30.3851 99.3696 30.6918C99.9163 30.9851 100.516 31.1318 101.17 31.1318ZM127.695 21.3918C128.548 21.3918 129.308 21.5718 129.975 21.9318C130.641 22.2784 131.168 22.8051 131.555 23.5118C131.941 24.2184 132.135 25.0784 132.135 26.0918V32.5518H130.335V26.3518C130.335 25.2584 130.061 24.4251 129.515 23.8518C128.981 23.2651 128.255 22.9718 127.335 22.9718C126.388 22.9718 125.635 23.2784 125.075 23.8918C124.515 24.4918 124.235 25.3651 124.235 26.5118V32.5518H122.435V26.3518C122.435 25.2584 122.161 24.4251 121.615 23.8518C121.081 23.2651 120.355 22.9718 119.435 22.9718C118.488 22.9718 117.735 23.2784 117.175 23.8918C116.615 24.4918 116.335 25.3651 116.335 26.5118V32.5518H114.515V21.5918H116.335V23.1718C116.695 22.5984 117.175 22.1584 117.775 21.8518C118.388 21.5451 119.061 21.3918 119.795 21.3918C120.715 21.3918 121.528 21.5984 122.235 22.0118C122.941 22.4251 123.468 23.0318 123.815 23.8318C124.121 23.0584 124.628 22.4584 125.335 22.0318C126.041 21.6051 126.828 21.3918 127.695 21.3918ZM144.84 21.5918V32.5518H143.02V30.9318C142.673 31.4918 142.187 31.9318 141.56 32.2518C140.947 32.5584 140.267 32.7118 139.52 32.7118C138.667 32.7118 137.9 32.5384 137.22 32.1918C136.54 31.8318 136 31.2984 135.6 30.5918C135.213 29.8851 135.02 29.0251 135.02 28.0118V21.5918H136.82V27.7718C136.82 28.8518 137.093 29.6851 137.64 30.2718C138.187 30.8451 138.933 31.1318 139.88 31.1318C140.853 31.1318 141.62 30.8318 142.18 30.2318C142.74 29.6318 143.02 28.7584 143.02 27.6118V21.5918H144.84ZM147.233 27.0318C147.233 25.9118 147.46 24.9318 147.913 24.0918C148.366 23.2384 148.986 22.5784 149.773 22.1118C150.573 21.6451 151.466 21.4118 152.453 21.4118C153.306 21.4118 154.1 21.6118 154.833 22.0118C155.566 22.3984 156.126 22.9118 156.513 23.5518V17.7518H158.353V32.5518H156.513V30.4918C156.153 31.1451 155.62 31.6851 154.913 32.1118C154.206 32.5251 153.38 32.7318 152.433 32.7318C151.46 32.7318 150.573 32.4918 149.773 32.0118C148.986 31.5318 148.366 30.8584 147.913 29.9918C147.46 29.1251 147.233 28.1384 147.233 27.0318ZM156.513 27.0518C156.513 26.2251 156.346 25.5051 156.013 24.8918C155.68 24.2784 155.226 23.8118 154.653 23.4918C154.093 23.1584 153.473 22.9918 152.793 22.9918C152.113 22.9918 151.493 23.1518 150.933 23.4718C150.373 23.7918 149.926 24.2584 149.593 24.8718C149.26 25.4851 149.093 26.2051 149.093 27.0318C149.093 27.8718 149.26 28.6051 149.593 29.2318C149.926 29.8451 150.373 30.3184 150.933 30.6518C151.493 30.9718 152.113 31.1318 152.793 31.1318C153.473 31.1318 154.093 30.9718 154.653 30.6518C155.226 30.3184 155.68 29.8451 156.013 29.2318C156.346 28.6051 156.513 27.8784 156.513 27.0518ZM160.749 27.0318C160.749 25.9118 160.975 24.9318 161.429 24.0918C161.882 23.2384 162.502 22.5784 163.289 22.1118C164.089 21.6451 164.975 21.4118 165.949 21.4118C166.909 21.4118 167.742 21.6184 168.449 22.0318C169.155 22.4451 169.682 22.9651 170.029 23.5918V21.5918H171.869V32.5518H170.029V30.5118C169.669 31.1518 169.129 31.6851 168.409 32.1118C167.702 32.5251 166.875 32.7318 165.929 32.7318C164.955 32.7318 164.075 32.4918 163.289 32.0118C162.502 31.5318 161.882 30.8584 161.429 29.9918C160.975 29.1251 160.749 28.1384 160.749 27.0318ZM170.029 27.0518C170.029 26.2251 169.862 25.5051 169.529 24.8918C169.195 24.2784 168.742 23.8118 168.169 23.4918C167.609 23.1584 166.989 22.9918 166.309 22.9918C165.629 22.9918 165.009 23.1518 164.449 23.4718C163.889 23.7918 163.442 24.2584 163.109 24.8718C162.775 25.4851 162.609 26.2051 162.609 27.0318C162.609 27.8718 162.775 28.6051 163.109 29.2318C163.442 29.8451 163.889 30.3184 164.449 30.6518C165.009 30.9718 165.629 31.1318 166.309 31.1318C166.989 31.1318 167.609 30.9718 168.169 30.6518C168.742 30.3184 169.195 29.8451 169.529 29.2318C169.862 28.6051 170.029 27.8784 170.029 27.0518ZM176.764 23.3718C177.084 22.7451 177.538 22.2584 178.124 21.9118C178.724 21.5651 179.451 21.3918 180.304 21.3918V23.2718H179.824C177.784 23.2718 176.764 24.3784 176.764 26.5918V32.5518H174.944V21.5918H176.764V23.3718ZM200.917 21.3918C201.771 21.3918 202.531 21.5718 203.197 21.9318C203.864 22.2784 204.391 22.8051 204.777 23.5118C205.164 24.2184 205.357 25.0784 205.357 26.0918V32.5518H203.557V26.3518C203.557 25.2584 203.284 24.4251 202.737 23.8518C202.204 23.2651 201.477 22.9718 200.557 22.9718C199.611 22.9718 198.857 23.2784 198.297 23.8918C197.737 24.4918 197.457 25.3651 197.457 26.5118V32.5518H195.657V26.3518C195.657 25.2584 195.384 24.4251 194.837 23.8518C194.304 23.2651 193.577 22.9718 192.657 22.9718C191.711 22.9718 190.957 23.2784 190.397 23.8918C189.837 24.4918 189.557 25.3651 189.557 26.5118V32.5518H187.737V21.5918H189.557V23.1718C189.917 22.5984 190.397 22.1584 190.997 21.8518C191.611 21.5451 192.284 21.3918 193.017 21.3918C193.937 21.3918 194.751 21.5984 195.457 22.0118C196.164 22.4251 196.691 23.0318 197.037 23.8318C197.344 23.0584 197.851 22.4584 198.557 22.0318C199.264 21.6051 200.051 21.3918 200.917 21.3918ZM218.343 26.6518C218.343 26.9984 218.323 27.3651 218.283 27.7518H209.523C209.589 28.8318 209.956 29.6784 210.623 30.2918C211.303 30.8918 212.123 31.1918 213.083 31.1918C213.869 31.1918 214.523 31.0118 215.043 30.6518C215.576 30.2784 215.949 29.7851 216.163 29.1718H218.123C217.829 30.2251 217.243 31.0851 216.363 31.7518C215.483 32.4051 214.389 32.7318 213.083 32.7318C212.043 32.7318 211.109 32.4984 210.283 32.0318C209.469 31.5651 208.829 30.9051 208.363 30.0518C207.896 29.1851 207.663 28.1851 207.663 27.0518C207.663 25.9184 207.889 24.9251 208.343 24.0718C208.796 23.2184 209.429 22.5651 210.243 22.1118C211.069 21.6451 212.016 21.4118 213.083 21.4118C214.123 21.4118 215.043 21.6384 215.843 22.0918C216.643 22.5451 217.256 23.1718 217.683 23.9718C218.123 24.7584 218.343 25.6518 218.343 26.6518ZM216.463 26.2718C216.463 25.5784 216.309 24.9851 216.003 24.4918C215.696 23.9851 215.276 23.6051 214.743 23.3518C214.223 23.0851 213.643 22.9518 213.003 22.9518C212.083 22.9518 211.296 23.2451 210.643 23.8318C210.003 24.4184 209.636 25.2318 209.543 26.2718H216.463ZM230.465 21.5918V32.5518H228.645V30.9318C228.298 31.4918 227.812 31.9318 227.185 32.2518C226.572 32.5584 225.892 32.7118 225.145 32.7118C224.292 32.7118 223.525 32.5384 222.845 32.1918C222.165 31.8318 221.625 31.2984 221.225 30.5918C220.838 29.8851 220.645 29.0251 220.645 28.0118V21.5918H222.445V27.7718C222.445 28.8518 222.718 29.6851 223.265 30.2718C223.812 30.8451 224.558 31.1318 225.505 31.1318C226.478 31.1318 227.245 30.8318 227.805 30.2318C228.365 29.6318 228.645 28.7584 228.645 27.6118V21.5918H230.465ZM89.2741 57.0518C89.2741 55.9184 89.5007 54.9318 89.9541 54.0918C90.4074 53.2384 91.0341 52.5784 91.8341 52.1118C92.6474 51.6451 93.5741 51.4118 94.6141 51.4118C95.9607 51.4118 97.0674 51.7384 97.9341 52.3918C98.8141 53.0451 99.3941 53.9518 99.6741 55.1118H97.7141C97.5274 54.4451 97.1607 53.9184 96.6141 53.5318C96.0807 53.1451 95.4141 52.9518 94.6141 52.9518C93.5741 52.9518 92.7341 53.3118 92.0941 54.0318C91.4541 54.7384 91.1341 55.7451 91.1341 57.0518C91.1341 58.3718 91.4541 59.3918 92.0941 60.1118C92.7341 60.8318 93.5741 61.1918 94.6141 61.1918C95.4141 61.1918 96.0807 61.0051 96.6141 60.6318C97.1474 60.2584 97.5141 59.7251 97.7141 59.0318H99.6741C99.3807 60.1518 98.7941 61.0518 97.9141 61.7318C97.0341 62.3984 95.9341 62.7318 94.6141 62.7318C93.5741 62.7318 92.6474 62.4984 91.8341 62.0318C91.0341 61.5651 90.4074 60.9051 89.9541 60.0518C89.5007 59.1984 89.2741 58.1984 89.2741 57.0518ZM101.422 57.0318C101.422 55.9118 101.649 54.9318 102.102 54.0918C102.556 53.2384 103.176 52.5784 103.962 52.1118C104.762 51.6451 105.649 51.4118 106.622 51.4118C107.582 51.4118 108.416 51.6184 109.122 52.0318C109.829 52.4451 110.356 52.9651 110.702 53.5918V51.5918H112.542V62.5518H110.702V60.5118C110.342 61.1518 109.802 61.6851 109.082 62.1118C108.376 62.5251 107.549 62.7318 106.602 62.7318C105.629 62.7318 104.749 62.4918 103.962 62.0118C103.176 61.5318 102.556 60.8584 102.102 59.9918C101.649 59.1251 101.422 58.1384 101.422 57.0318ZM110.702 57.0518C110.702 56.2251 110.536 55.5051 110.202 54.8918C109.869 54.2784 109.416 53.8118 108.842 53.4918C108.282 53.1584 107.662 52.9918 106.982 52.9918C106.302 52.9918 105.682 53.1518 105.122 53.4718C104.562 53.7918 104.116 54.2584 103.782 54.8718C103.449 55.4851 103.282 56.2051 103.282 57.0318C103.282 57.8718 103.449 58.6051 103.782 59.2318C104.116 59.8451 104.562 60.3184 105.122 60.6518C105.682 60.9718 106.302 61.1318 106.982 61.1318C107.662 61.1318 108.282 60.9718 108.842 60.6518C109.416 60.3184 109.869 59.8451 110.202 59.2318C110.536 58.6051 110.702 57.8784 110.702 57.0518ZM114.938 57.0318C114.938 55.9118 115.165 54.9318 115.618 54.0918C116.071 53.2384 116.691 52.5784 117.478 52.1118C118.278 51.6451 119.171 51.4118 120.158 51.4118C121.011 51.4118 121.805 51.6118 122.538 52.0118C123.271 52.3984 123.831 52.9118 124.218 53.5518V47.7518H126.058V62.5518H124.218V60.4918C123.858 61.1451 123.325 61.6851 122.618 62.1118C121.911 62.5251 121.085 62.7318 120.138 62.7318C119.165 62.7318 118.278 62.4918 117.478 62.0118C116.691 61.5318 116.071 60.8584 115.618 59.9918C115.165 59.1251 114.938 58.1384 114.938 57.0318ZM124.218 57.0518C124.218 56.2251 124.051 55.5051 123.718 54.8918C123.385 54.2784 122.931 53.8118 122.358 53.4918C121.798 53.1584 121.178 52.9918 120.498 52.9918C119.818 52.9918 119.198 53.1518 118.638 53.4718C118.078 53.7918 117.631 54.2584 117.298 54.8718C116.965 55.4851 116.798 56.2051 116.798 57.0318C116.798 57.8718 116.965 58.6051 117.298 59.2318C117.631 59.8451 118.078 60.3184 118.638 60.6518C119.198 60.9718 119.818 61.1318 120.498 61.1318C121.178 61.1318 121.798 60.9718 122.358 60.6518C122.931 60.3184 123.385 59.8451 123.718 59.2318C124.051 58.6051 124.218 57.8784 124.218 57.0518ZM128.454 57.0318C128.454 55.9118 128.68 54.9318 129.134 54.0918C129.587 53.2384 130.207 52.5784 130.994 52.1118C131.794 51.6451 132.68 51.4118 133.654 51.4118C134.614 51.4118 135.447 51.6184 136.154 52.0318C136.86 52.4451 137.387 52.9651 137.734 53.5918V51.5918H139.574V62.5518H137.734V60.5118C137.374 61.1518 136.834 61.6851 136.114 62.1118C135.407 62.5251 134.58 62.7318 133.634 62.7318C132.66 62.7318 131.78 62.4918 130.994 62.0118C130.207 61.5318 129.587 60.8584 129.134 59.9918C128.68 59.1251 128.454 58.1384 128.454 57.0318ZM137.734 57.0518C137.734 56.2251 137.567 55.5051 137.234 54.8918C136.9 54.2784 136.447 53.8118 135.874 53.4918C135.314 53.1584 134.694 52.9918 134.014 52.9918C133.334 52.9918 132.714 53.1518 132.154 53.4718C131.594 53.7918 131.147 54.2584 130.814 54.8718C130.48 55.4851 130.314 56.2051 130.314 57.0318C130.314 57.8718 130.48 58.6051 130.814 59.2318C131.147 59.8451 131.594 60.3184 132.154 60.6518C132.714 60.9718 133.334 61.1318 134.014 61.1318C134.694 61.1318 135.314 60.9718 135.874 60.6518C136.447 60.3184 136.9 59.8451 137.234 59.2318C137.567 58.6051 137.734 57.8784 137.734 57.0518ZM146.529 62.7318C145.689 62.7318 144.936 62.5918 144.269 62.3118C143.603 62.0184 143.076 61.6184 142.689 61.1118C142.303 60.5918 142.089 59.9984 142.049 59.3318H143.929C143.983 59.8784 144.236 60.3251 144.689 60.6718C145.156 61.0184 145.763 61.1918 146.509 61.1918C147.203 61.1918 147.749 61.0384 148.149 60.7318C148.549 60.4251 148.749 60.0384 148.749 59.5718C148.749 59.0918 148.536 58.7384 148.109 58.5118C147.683 58.2718 147.023 58.0384 146.129 57.8118C145.316 57.5984 144.649 57.3851 144.129 57.1718C143.623 56.9451 143.183 56.6184 142.809 56.1918C142.449 55.7518 142.269 55.1784 142.269 54.4718C142.269 53.9118 142.436 53.3984 142.769 52.9318C143.103 52.4651 143.576 52.0984 144.189 51.8318C144.803 51.5518 145.503 51.4118 146.289 51.4118C147.503 51.4118 148.483 51.7184 149.229 52.3318C149.976 52.9451 150.376 53.7851 150.429 54.8518H148.609C148.569 54.2784 148.336 53.8184 147.909 53.4718C147.496 53.1251 146.936 52.9518 146.229 52.9518C145.576 52.9518 145.056 53.0918 144.669 53.3718C144.283 53.6518 144.089 54.0184 144.089 54.4718C144.089 54.8318 144.203 55.1318 144.429 55.3718C144.669 55.5984 144.963 55.7851 145.309 55.9318C145.669 56.0651 146.163 56.2184 146.789 56.3918C147.576 56.6051 148.216 56.8184 148.709 57.0318C149.203 57.2318 149.623 57.5384 149.969 57.9518C150.329 58.3651 150.516 58.9051 150.529 59.5718C150.529 60.1718 150.363 60.7118 150.029 61.1918C149.696 61.6718 149.223 62.0518 148.609 62.3318C148.009 62.5984 147.316 62.7318 146.529 62.7318ZM155.319 53.0918V59.5518C155.319 60.0851 155.432 60.4651 155.659 60.6918C155.885 60.9051 156.279 61.0118 156.839 61.0118H158.179V62.5518H156.539C155.525 62.5518 154.765 62.3184 154.259 61.8518C153.752 61.3851 153.499 60.6184 153.499 59.5518V53.0918H152.079V51.5918H153.499V48.8318H155.319V51.5918H158.179V53.0918H155.319ZM162.204 53.3718C162.524 52.7451 162.977 52.2584 163.564 51.9118C164.164 51.5651 164.89 51.3918 165.744 51.3918V53.2718H165.264C163.224 53.2718 162.204 54.3784 162.204 56.5918V62.5518H160.384V51.5918H162.204V53.3718ZM172.625 62.7318C171.598 62.7318 170.665 62.4984 169.825 62.0318C168.998 61.5651 168.345 60.9051 167.865 60.0518C167.398 59.1851 167.165 58.1851 167.165 57.0518C167.165 55.9318 167.405 54.9451 167.885 54.0918C168.378 53.2251 169.045 52.5651 169.885 52.1118C170.725 51.6451 171.665 51.4118 172.705 51.4118C173.745 51.4118 174.685 51.6451 175.525 52.1118C176.365 52.5651 177.025 53.2184 177.505 54.0718C177.998 54.9251 178.245 55.9184 178.245 57.0518C178.245 58.1851 177.991 59.1851 177.485 60.0518C176.991 60.9051 176.318 61.5651 175.465 62.0318C174.611 62.4984 173.665 62.7318 172.625 62.7318ZM172.625 61.1318C173.278 61.1318 173.891 60.9784 174.465 60.6718C175.038 60.3651 175.498 59.9051 175.845 59.2918C176.205 58.6784 176.385 57.9318 176.385 57.0518C176.385 56.1718 176.211 55.4251 175.865 54.8118C175.518 54.1984 175.065 53.7451 174.505 53.4518C173.945 53.1451 173.338 52.9918 172.685 52.9918C172.018 52.9918 171.405 53.1451 170.845 53.4518C170.298 53.7451 169.858 54.1984 169.525 54.8118C169.191 55.4251 169.025 56.1718 169.025 57.0518C169.025 57.9451 169.185 58.6984 169.505 59.3118C169.838 59.9251 170.278 60.3851 170.825 60.6918C171.371 60.9851 171.971 61.1318 172.625 61.1318ZM184.198 48.4318C185.518 48.4318 186.584 48.8051 187.398 49.5518C188.211 50.2984 188.618 51.2984 188.618 52.5518C188.618 53.9518 188.184 54.9918 187.318 55.6718C186.451 56.3384 185.278 56.6718 183.798 56.6718L183.738 58.5718H182.158L182.078 55.4118H182.658C183.978 55.4118 185.011 55.2118 185.758 54.8118C186.504 54.4118 186.878 53.6584 186.878 52.5518C186.878 51.7518 186.638 51.1184 186.158 50.6518C185.678 50.1851 185.031 49.9518 184.218 49.9518C183.391 49.9518 182.738 50.1784 182.258 50.6318C181.791 51.0718 181.558 51.6784 181.558 52.4518H179.838C179.838 51.6518 180.018 50.9518 180.378 50.3518C180.738 49.7384 181.244 49.2651 181.898 48.9318C182.564 48.5984 183.331 48.4318 184.198 48.4318ZM182.938 62.6718C182.591 62.6718 182.298 62.5518 182.058 62.3118C181.818 62.0718 181.698 61.7784 181.698 61.4318C181.698 61.0851 181.818 60.7918 182.058 60.5518C182.298 60.3118 182.591 60.1918 182.938 60.1918C183.271 60.1918 183.551 60.3118 183.778 60.5518C184.018 60.7918 184.138 61.0851 184.138 61.4318C184.138 61.7784 184.018 62.0718 183.778 62.3118C183.551 62.5518 183.271 62.6718 182.938 62.6718Z" fill="#AAE1D6"/>
</svg>
