<svg width="278" height="78" viewBox="0 0 278 78" fill="none" xmlns="http://www.w3.org/2000/svg">
<rect x="0.672363" width="276.655" height="77.1207" rx="14.5" fill="#09389C"/>
<path d="M22.86 39.02C22.86 37.66 23.1667 36.44 23.78 35.36C24.3933 34.2667 25.2267 33.4133 26.28 32.8C27.3467 32.1867 28.5267 31.88 29.82 31.88C31.34 31.88 32.6667 32.2467 33.8 32.98C34.9333 33.7133 35.76 34.7533 36.28 36.1H34.1C33.7133 35.26 33.1533 34.6133 32.42 34.16C31.7 33.7067 30.8333 33.48 29.82 33.48C28.8467 33.48 27.9733 33.7067 27.2 34.16C26.4267 34.6133 25.82 35.26 25.38 36.1C24.94 36.9267 24.72 37.9 24.72 39.02C24.72 40.1267 24.94 41.1 25.38 41.94C25.82 42.7667 26.4267 43.4067 27.2 43.86C27.9733 44.3133 28.8467 44.54 29.82 44.54C30.8333 44.54 31.7 44.32 32.42 43.88C33.1533 43.4267 33.7133 42.78 34.1 41.94H36.28C35.76 43.2733 34.9333 44.3067 33.8 45.04C32.6667 45.76 31.34 46.12 29.82 46.12C28.5267 46.12 27.3467 45.82 26.28 45.22C25.2267 44.6067 24.3933 43.76 23.78 42.68C23.1667 41.6 22.86 40.38 22.86 39.02ZM43.7692 46.18C42.7426 46.18 41.8092 45.9467 40.9692 45.48C40.1426 45.0133 39.4892 44.3533 39.0092 43.5C38.5426 42.6333 38.3092 41.6333 38.3092 40.5C38.3092 39.38 38.5492 38.3933 39.0292 37.54C39.5226 36.6733 40.1892 36.0133 41.0292 35.56C41.8692 35.0933 42.8092 34.86 43.8492 34.86C44.8892 34.86 45.8292 35.0933 46.6692 35.56C47.5092 36.0133 48.1692 36.6667 48.6492 37.52C49.1426 38.3733 49.3892 39.3667 49.3892 40.5C49.3892 41.6333 49.1359 42.6333 48.6292 43.5C48.1359 44.3533 47.4626 45.0133 46.6092 45.48C45.7559 45.9467 44.8092 46.18 43.7692 46.18ZM43.7692 44.58C44.4226 44.58 45.0359 44.4267 45.6092 44.12C46.1826 43.8133 46.6426 43.3533 46.9892 42.74C47.3492 42.1267 47.5292 41.38 47.5292 40.5C47.5292 39.62 47.3559 38.8733 47.0092 38.26C46.6626 37.6467 46.2092 37.1933 45.6492 36.9C45.0892 36.5933 44.4826 36.44 43.8292 36.44C43.1626 36.44 42.5492 36.5933 41.9892 36.9C41.4426 37.1933 41.0026 37.6467 40.6692 38.26C40.3359 38.8733 40.1692 39.62 40.1692 40.5C40.1692 41.3933 40.3292 42.1467 40.6492 42.76C40.9826 43.3733 41.4226 43.8333 41.9692 44.14C42.5159 44.4333 43.1159 44.58 43.7692 44.58ZM64.9622 34.84C65.8155 34.84 66.5755 35.02 67.2422 35.38C67.9089 35.7267 68.4355 36.2533 68.8222 36.96C69.2089 37.6667 69.4022 38.5267 69.4022 39.54V46H67.6022V39.8C67.6022 38.7067 67.3289 37.8733 66.7822 37.3C66.2489 36.7133 65.5222 36.42 64.6022 36.42C63.6555 36.42 62.9022 36.7267 62.3422 37.34C61.7822 37.94 61.5022 38.8133 61.5022 39.96V46H59.7022V39.8C59.7022 38.7067 59.4289 37.8733 58.8822 37.3C58.3489 36.7133 57.6222 36.42 56.7022 36.42C55.7555 36.42 55.0022 36.7267 54.4422 37.34C53.8822 37.94 53.6022 38.8133 53.6022 39.96V46H51.7822V35.04H53.6022V36.62C53.9622 36.0467 54.4422 35.6067 55.0422 35.3C55.6555 34.9933 56.3289 34.84 57.0622 34.84C57.9822 34.84 58.7955 35.0467 59.5022 35.46C60.2089 35.8733 60.7355 36.48 61.0822 37.28C61.3889 36.5067 61.8955 35.9067 62.6022 35.48C63.3089 35.0533 64.0955 34.84 64.9622 34.84ZM77.1677 46.18C76.141 46.18 75.2077 45.9467 74.3677 45.48C73.541 45.0133 72.8877 44.3533 72.4077 43.5C71.941 42.6333 71.7077 41.6333 71.7077 40.5C71.7077 39.38 71.9477 38.3933 72.4277 37.54C72.921 36.6733 73.5877 36.0133 74.4277 35.56C75.2677 35.0933 76.2077 34.86 77.2477 34.86C78.2877 34.86 79.2277 35.0933 80.0677 35.56C80.9077 36.0133 81.5677 36.6667 82.0477 37.52C82.541 38.3733 82.7877 39.3667 82.7877 40.5C82.7877 41.6333 82.5343 42.6333 82.0277 43.5C81.5343 44.3533 80.861 45.0133 80.0077 45.48C79.1543 45.9467 78.2077 46.18 77.1677 46.18ZM77.1677 44.58C77.821 44.58 78.4343 44.4267 79.0077 44.12C79.581 43.8133 80.041 43.3533 80.3877 42.74C80.7477 42.1267 80.9277 41.38 80.9277 40.5C80.9277 39.62 80.7543 38.8733 80.4077 38.26C80.061 37.6467 79.6077 37.1933 79.0477 36.9C78.4877 36.5933 77.881 36.44 77.2277 36.44C76.561 36.44 75.9477 36.5933 75.3877 36.9C74.841 37.1933 74.401 37.6467 74.0677 38.26C73.7343 38.8733 73.5677 39.62 73.5677 40.5C73.5677 41.3933 73.7277 42.1467 74.0477 42.76C74.381 43.3733 74.821 43.8333 75.3677 44.14C75.9143 44.4333 76.5143 44.58 77.1677 44.58ZM100.233 35.04V46H98.4127V44.38C98.066 44.94 97.5793 45.38 96.9527 45.7C96.3393 46.0067 95.6593 46.16 94.9127 46.16C94.0593 46.16 93.2927 45.9867 92.6127 45.64C91.9327 45.28 91.3927 44.7467 90.9927 44.04C90.606 43.3333 90.4127 42.4733 90.4127 41.46V35.04H92.2127V41.22C92.2127 42.3 92.486 43.1333 93.0327 43.72C93.5793 44.2933 94.326 44.58 95.2727 44.58C96.246 44.58 97.0127 44.28 97.5727 43.68C98.1327 43.08 98.4127 42.2067 98.4127 41.06V35.04H100.233ZM107.186 46.18C106.346 46.18 105.592 46.04 104.926 45.76C104.259 45.4667 103.732 45.0667 103.346 44.56C102.959 44.04 102.746 43.4467 102.706 42.78H104.586C104.639 43.3267 104.892 43.7733 105.346 44.12C105.812 44.4667 106.419 44.64 107.166 44.64C107.859 44.64 108.406 44.4867 108.806 44.18C109.206 43.8733 109.406 43.4867 109.406 43.02C109.406 42.54 109.192 42.1867 108.766 41.96C108.339 41.72 107.679 41.4867 106.786 41.26C105.972 41.0467 105.306 40.8333 104.786 40.62C104.279 40.3933 103.839 40.0667 103.466 39.64C103.106 39.2 102.926 38.6267 102.926 37.92C102.926 37.36 103.092 36.8467 103.426 36.38C103.759 35.9133 104.232 35.5467 104.846 35.28C105.459 35 106.159 34.86 106.946 34.86C108.159 34.86 109.139 35.1667 109.886 35.78C110.632 36.3933 111.032 37.2333 111.086 38.3H109.266C109.226 37.7267 108.992 37.2667 108.566 36.92C108.152 36.5733 107.592 36.4 106.886 36.4C106.232 36.4 105.712 36.54 105.326 36.82C104.939 37.1 104.746 37.4667 104.746 37.92C104.746 38.28 104.859 38.58 105.086 38.82C105.326 39.0467 105.619 39.2333 105.966 39.38C106.326 39.5133 106.819 39.6667 107.446 39.84C108.232 40.0533 108.872 40.2667 109.366 40.48C109.859 40.68 110.279 40.9867 110.626 41.4C110.986 41.8133 111.172 42.3533 111.186 43.02C111.186 43.62 111.019 44.16 110.686 44.64C110.352 45.12 109.879 45.5 109.266 45.78C108.666 46.0467 107.972 46.18 107.186 46.18ZM113.075 40.48C113.075 39.36 113.302 38.38 113.755 37.54C114.208 36.6867 114.828 36.0267 115.615 35.56C116.415 35.0933 117.302 34.86 118.275 34.86C119.235 34.86 120.068 35.0667 120.775 35.48C121.482 35.8933 122.008 36.4133 122.355 37.04V35.04H124.195V46H122.355V43.96C121.995 44.6 121.455 45.1333 120.735 45.56C120.028 45.9733 119.202 46.18 118.255 46.18C117.282 46.18 116.402 45.94 115.615 45.46C114.828 44.98 114.208 44.3067 113.755 43.44C113.302 42.5733 113.075 41.5867 113.075 40.48ZM122.355 40.5C122.355 39.6733 122.188 38.9533 121.855 38.34C121.522 37.7267 121.068 37.26 120.495 36.94C119.935 36.6067 119.315 36.44 118.635 36.44C117.955 36.44 117.335 36.6 116.775 36.92C116.215 37.24 115.768 37.7067 115.435 38.32C115.102 38.9333 114.935 39.6533 114.935 40.48C114.935 41.32 115.102 42.0533 115.435 42.68C115.768 43.2933 116.215 43.7667 116.775 44.1C117.335 44.42 117.955 44.58 118.635 44.58C119.315 44.58 119.935 44.42 120.495 44.1C121.068 43.7667 121.522 43.2933 121.855 42.68C122.188 42.0533 122.355 41.3267 122.355 40.5ZM129.09 36.82C129.41 36.1933 129.864 35.7067 130.45 35.36C131.05 35.0133 131.777 34.84 132.63 34.84V36.72H132.15C130.11 36.72 129.09 37.8267 129.09 40.04V46H127.27V35.04H129.09V36.82ZM144.843 46.18C143.817 46.18 142.883 45.9467 142.043 45.48C141.217 45.0133 140.563 44.3533 140.083 43.5C139.617 42.6333 139.383 41.6333 139.383 40.5C139.383 39.38 139.623 38.3933 140.103 37.54C140.597 36.6733 141.263 36.0133 142.103 35.56C142.943 35.0933 143.883 34.86 144.923 34.86C145.963 34.86 146.903 35.0933 147.743 35.56C148.583 36.0133 149.243 36.6667 149.723 37.52C150.217 38.3733 150.463 39.3667 150.463 40.5C150.463 41.6333 150.21 42.6333 149.703 43.5C149.21 44.3533 148.537 45.0133 147.683 45.48C146.83 45.9467 145.883 46.18 144.843 46.18ZM144.843 44.58C145.497 44.58 146.11 44.4267 146.683 44.12C147.257 43.8133 147.717 43.3533 148.063 42.74C148.423 42.1267 148.603 41.38 148.603 40.5C148.603 39.62 148.43 38.8733 148.083 38.26C147.737 37.6467 147.283 37.1933 146.723 36.9C146.163 36.5933 145.557 36.44 144.903 36.44C144.237 36.44 143.623 36.5933 143.063 36.9C142.517 37.1933 142.077 37.6467 141.743 38.26C141.41 38.8733 141.243 39.62 141.243 40.5C141.243 41.3933 141.403 42.1467 141.723 42.76C142.057 43.3733 142.497 43.8333 143.043 44.14C143.59 44.4333 144.19 44.58 144.843 44.58ZM157.508 40.48C157.508 39.36 157.735 38.38 158.188 37.54C158.642 36.6867 159.262 36.0267 160.048 35.56C160.848 35.0933 161.735 34.86 162.708 34.86C163.668 34.86 164.502 35.0667 165.208 35.48C165.915 35.8933 166.442 36.4133 166.788 37.04V35.04H168.628V46H166.788V43.96C166.428 44.6 165.888 45.1333 165.168 45.56C164.462 45.9733 163.635 46.18 162.688 46.18C161.715 46.18 160.835 45.94 160.048 45.46C159.262 44.98 158.642 44.3067 158.188 43.44C157.735 42.5733 157.508 41.5867 157.508 40.48ZM166.788 40.5C166.788 39.6733 166.622 38.9533 166.288 38.34C165.955 37.7267 165.502 37.26 164.928 36.94C164.368 36.6067 163.748 36.44 163.068 36.44C162.388 36.44 161.768 36.6 161.208 36.92C160.648 37.24 160.202 37.7067 159.868 38.32C159.535 38.9333 159.368 39.6533 159.368 40.48C159.368 41.32 159.535 42.0533 159.868 42.68C160.202 43.2933 160.648 43.7667 161.208 44.1C161.768 44.42 162.388 44.58 163.068 44.58C163.748 44.58 164.368 44.42 164.928 44.1C165.502 43.7667 165.955 43.2933 166.288 42.68C166.622 42.0533 166.788 41.3267 166.788 40.5ZM173.524 37.06C173.884 36.4333 174.417 35.9133 175.124 35.5C175.844 35.0733 176.677 34.86 177.624 34.86C178.597 34.86 179.477 35.0933 180.264 35.56C181.064 36.0267 181.691 36.6867 182.144 37.54C182.597 38.38 182.824 39.36 182.824 40.48C182.824 41.5867 182.597 42.5733 182.144 43.44C181.691 44.3067 181.064 44.98 180.264 45.46C179.477 45.94 178.597 46.18 177.624 46.18C176.691 46.18 175.864 45.9733 175.144 45.56C174.437 45.1333 173.897 44.6067 173.524 43.98V51.2H171.704V35.04H173.524V37.06ZM180.964 40.48C180.964 39.6533 180.797 38.9333 180.464 38.32C180.131 37.7067 179.677 37.24 179.104 36.92C178.544 36.6 177.924 36.44 177.244 36.44C176.577 36.44 175.957 36.6067 175.384 36.94C174.824 37.26 174.371 37.7333 174.024 38.36C173.691 38.9733 173.524 39.6867 173.524 40.5C173.524 41.3267 173.691 42.0533 174.024 42.68C174.371 43.2933 174.824 43.7667 175.384 44.1C175.957 44.42 176.577 44.58 177.244 44.58C177.924 44.58 178.544 44.42 179.104 44.1C179.677 43.7667 180.131 43.2933 180.464 42.68C180.797 42.0533 180.964 41.32 180.964 40.48ZM184.54 40.48C184.54 39.36 184.766 38.38 185.22 37.54C185.673 36.6867 186.293 36.0267 187.08 35.56C187.88 35.0933 188.766 34.86 189.74 34.86C190.7 34.86 191.533 35.0667 192.24 35.48C192.946 35.8933 193.473 36.4133 193.82 37.04V35.04H195.66V46H193.82V43.96C193.46 44.6 192.92 45.1333 192.2 45.56C191.493 45.9733 190.666 46.18 189.72 46.18C188.746 46.18 187.866 45.94 187.08 45.46C186.293 44.98 185.673 44.3067 185.22 43.44C184.766 42.5733 184.54 41.5867 184.54 40.48ZM193.82 40.5C193.82 39.6733 193.653 38.9533 193.32 38.34C192.986 37.7267 192.533 37.26 191.96 36.94C191.4 36.6067 190.78 36.44 190.1 36.44C189.42 36.44 188.8 36.6 188.24 36.92C187.68 37.24 187.233 37.7067 186.9 38.32C186.566 38.9333 186.4 39.6533 186.4 40.48C186.4 41.32 186.566 42.0533 186.9 42.68C187.233 43.2933 187.68 43.7667 188.24 44.1C188.8 44.42 189.42 44.58 190.1 44.58C190.78 44.58 191.4 44.42 191.96 44.1C192.533 43.7667 192.986 43.2933 193.32 42.68C193.653 42.0533 193.82 41.3267 193.82 40.5ZM200.555 36.82C200.875 36.1933 201.329 35.7067 201.915 35.36C202.515 35.0133 203.242 34.84 204.095 34.84V36.72H203.615C201.575 36.72 200.555 37.8267 200.555 40.04V46H198.735V35.04H200.555V36.82ZM216.196 40.1C216.196 40.4467 216.176 40.8133 216.136 41.2H207.376C207.443 42.28 207.81 43.1267 208.476 43.74C209.156 44.34 209.976 44.64 210.936 44.64C211.723 44.64 212.376 44.46 212.896 44.1C213.43 43.7267 213.803 43.2333 214.016 42.62H215.976C215.683 43.6733 215.096 44.5333 214.216 45.2C213.336 45.8533 212.243 46.18 210.936 46.18C209.896 46.18 208.963 45.9467 208.136 45.48C207.323 45.0133 206.683 44.3533 206.216 43.5C205.75 42.6333 205.516 41.6333 205.516 40.5C205.516 39.3667 205.743 38.3733 206.196 37.52C206.65 36.6667 207.283 36.0133 208.096 35.56C208.923 35.0933 209.87 34.86 210.936 34.86C211.976 34.86 212.896 35.0867 213.696 35.54C214.496 35.9933 215.11 36.62 215.536 37.42C215.976 38.2067 216.196 39.1 216.196 40.1ZM214.316 39.72C214.316 39.0267 214.163 38.4333 213.856 37.94C213.55 37.4333 213.13 37.0533 212.596 36.8C212.076 36.5333 211.496 36.4 210.856 36.4C209.936 36.4 209.15 36.6933 208.496 37.28C207.856 37.8667 207.49 38.68 207.396 39.72H214.316ZM220.419 31.2V46H218.599V31.2H220.419ZM228.96 34.84C229.787 34.84 230.534 35.02 231.2 35.38C231.867 35.7267 232.387 36.2533 232.76 36.96C233.147 37.6667 233.34 38.5267 233.34 39.54V46H231.54V39.8C231.54 38.7067 231.267 37.8733 230.72 37.3C230.174 36.7133 229.427 36.42 228.48 36.42C227.52 36.42 226.754 36.72 226.18 37.32C225.62 37.92 225.34 38.7933 225.34 39.94V46H223.52V31.2H225.34V36.6C225.7 36.04 226.194 35.6067 226.82 35.3C227.46 34.9933 228.174 34.84 228.96 34.84ZM241.093 46.18C240.067 46.18 239.133 45.9467 238.293 45.48C237.467 45.0133 236.813 44.3533 236.333 43.5C235.867 42.6333 235.633 41.6333 235.633 40.5C235.633 39.38 235.873 38.3933 236.353 37.54C236.847 36.6733 237.513 36.0133 238.353 35.56C239.193 35.0933 240.133 34.86 241.173 34.86C242.213 34.86 243.153 35.0933 243.993 35.56C244.833 36.0133 245.493 36.6667 245.973 37.52C246.467 38.3733 246.713 39.3667 246.713 40.5C246.713 41.6333 246.46 42.6333 245.953 43.5C245.46 44.3533 244.787 45.0133 243.933 45.48C243.08 45.9467 242.133 46.18 241.093 46.18ZM241.093 44.58C241.747 44.58 242.36 44.4267 242.933 44.12C243.507 43.8133 243.967 43.3533 244.313 42.74C244.673 42.1267 244.853 41.38 244.853 40.5C244.853 39.62 244.68 38.8733 244.333 38.26C243.987 37.6467 243.533 37.1933 242.973 36.9C242.413 36.5933 241.807 36.44 241.153 36.44C240.487 36.44 239.873 36.5933 239.313 36.9C238.767 37.1933 238.327 37.6467 237.993 38.26C237.66 38.8733 237.493 39.62 237.493 40.5C237.493 41.3933 237.653 42.1467 237.973 42.76C238.307 43.3733 238.747 43.8333 239.293 44.14C239.84 44.4333 240.44 44.58 241.093 44.58ZM252.666 31.88C253.986 31.88 255.053 32.2533 255.866 33C256.68 33.7467 257.086 34.7467 257.086 36C257.086 37.4 256.653 38.44 255.786 39.12C254.92 39.7867 253.746 40.12 252.266 40.12L252.206 42.02H250.626L250.546 38.86H251.126C252.446 38.86 253.48 38.66 254.226 38.26C254.973 37.86 255.346 37.1067 255.346 36C255.346 35.2 255.106 34.5667 254.626 34.1C254.146 33.6333 253.5 33.4 252.686 33.4C251.86 33.4 251.206 33.6267 250.726 34.08C250.26 34.52 250.026 35.1267 250.026 35.9H248.306C248.306 35.1 248.486 34.4 248.846 33.8C249.206 33.1867 249.713 32.7133 250.366 32.38C251.033 32.0467 251.8 31.88 252.666 31.88ZM251.406 46.12C251.06 46.12 250.766 46 250.526 45.76C250.286 45.52 250.166 45.2267 250.166 44.88C250.166 44.5333 250.286 44.24 250.526 44C250.766 43.76 251.06 43.64 251.406 43.64C251.74 43.64 252.02 43.76 252.246 44C252.486 44.24 252.606 44.5333 252.606 44.88C252.606 45.2267 252.486 45.52 252.246 45.76C252.02 46 251.74 46.12 251.406 46.12Z" fill="#AAE1D6"/>
</svg>
