<svg width="284" height="79" viewBox="0 0 284 79" fill="none" xmlns="http://www.w3.org/2000/svg">
<rect x="3.67236" y="0.965576" width="276.655" height="77.1207" rx="14.5" fill="#09389C"/>
<path d="M26.001 34.2667L23.36 31.6257C22.714 31.803 22.0553 31.8917 21.384 31.8917C20.1553 31.8917 19.0343 31.6067 18.021 31.0367C17.0077 30.454 16.2033 29.6497 15.608 28.6237C15.0253 27.585 14.734 26.4197 14.734 25.1277C14.734 23.8357 15.0253 22.6767 15.608 21.6507C16.2033 20.612 17.0077 19.8077 18.021 19.2377C19.0343 18.655 20.1553 18.3637 21.384 18.3637C22.6253 18.3637 23.7527 18.655 24.766 19.2377C25.7793 19.8077 26.5773 20.6057 27.16 21.6317C27.7427 22.6577 28.034 23.823 28.034 25.1277C28.034 26.3943 27.7553 27.5343 27.198 28.5477C26.6407 29.561 25.8743 30.359 24.899 30.9417L28.243 34.2667H26.001ZM16.501 25.1277C16.501 26.179 16.71 27.1037 17.128 27.9017C17.5587 28.6997 18.1413 29.314 18.876 29.7447C19.6233 30.1753 20.4593 30.3907 21.384 30.3907C22.3087 30.3907 23.1383 30.1753 23.873 29.7447C24.6203 29.314 25.203 28.6997 25.621 27.9017C26.0517 27.1037 26.267 26.179 26.267 25.1277C26.267 24.0637 26.0517 23.139 25.621 22.3537C25.203 21.5557 24.6267 20.9413 23.892 20.5107C23.1573 20.08 22.3213 19.8647 21.384 19.8647C20.4467 19.8647 19.6107 20.08 18.876 20.5107C18.1413 20.9413 17.5587 21.5557 17.128 22.3537C16.71 23.139 16.501 24.0637 16.501 25.1277ZM39.5876 21.3467V31.7587H37.8586V30.2197C37.5293 30.7517 37.067 31.1697 36.4716 31.4737C35.889 31.765 35.243 31.9107 34.5336 31.9107C33.723 31.9107 32.9946 31.746 32.3486 31.4167C31.7026 31.0747 31.1896 30.568 30.8096 29.8967C30.4423 29.2253 30.2586 28.4083 30.2586 27.4457V21.3467H31.9686V27.2177C31.9686 28.2437 32.2283 29.0353 32.7476 29.5927C33.267 30.1373 33.9763 30.4097 34.8756 30.4097C35.8003 30.4097 36.5286 30.1247 37.0606 29.5547C37.5926 28.9847 37.8586 28.155 37.8586 27.0657V21.3467H39.5876ZM41.8609 26.5147C41.8609 25.4507 42.0763 24.5197 42.5069 23.7217C42.9376 22.911 43.5266 22.284 44.2739 21.8407C45.0339 21.3973 45.8763 21.1757 46.8009 21.1757C47.7129 21.1757 48.5046 21.372 49.1759 21.7647C49.8473 22.1573 50.3476 22.6513 50.6769 23.2467V21.3467H52.4249V31.7587H50.6769V29.8207C50.3349 30.4287 49.8219 30.9353 49.1379 31.3407C48.4666 31.7333 47.6813 31.9297 46.7819 31.9297C45.8573 31.9297 45.0213 31.7017 44.2739 31.2457C43.5266 30.7897 42.9376 30.15 42.5069 29.3267C42.0763 28.5033 41.8609 27.566 41.8609 26.5147ZM50.6769 26.5337C50.6769 25.7483 50.5186 25.0643 50.2019 24.4817C49.8853 23.899 49.4546 23.4557 48.9099 23.1517C48.3779 22.835 47.7889 22.6767 47.1429 22.6767C46.4969 22.6767 45.9079 22.8287 45.3759 23.1327C44.8439 23.4367 44.4196 23.88 44.1029 24.4627C43.7863 25.0453 43.6279 25.7293 43.6279 26.5147C43.6279 27.3127 43.7863 28.0093 44.1029 28.6047C44.4196 29.1873 44.8439 29.637 45.3759 29.9537C45.9079 30.2577 46.4969 30.4097 47.1429 30.4097C47.7889 30.4097 48.3779 30.2577 48.9099 29.9537C49.4546 29.637 49.8853 29.1873 50.2019 28.6047C50.5186 28.0093 50.6769 27.319 50.6769 26.5337ZM56.2398 19.6557C55.9105 19.6557 55.6318 19.5417 55.4038 19.3137C55.1758 19.0857 55.0618 18.807 55.0618 18.4777C55.0618 18.1483 55.1758 17.8697 55.4038 17.6417C55.6318 17.4137 55.9105 17.2997 56.2398 17.2997C56.5565 17.2997 56.8225 17.4137 57.0378 17.6417C57.2658 17.8697 57.3798 18.1483 57.3798 18.4777C57.3798 18.807 57.2658 19.0857 57.0378 19.3137C56.8225 19.5417 56.5565 19.6557 56.2398 19.6557ZM57.0758 21.3467V31.7587H55.3468V21.3467H57.0758ZM63.7086 31.9297C62.9106 31.9297 62.1949 31.7967 61.5616 31.5307C60.9282 31.252 60.4279 30.872 60.0606 30.3907C59.6932 29.8967 59.4906 29.333 59.4526 28.6997H61.2386C61.2892 29.219 61.5299 29.6433 61.9606 29.9727C62.4039 30.302 62.9802 30.4667 63.6896 30.4667C64.3482 30.4667 64.8676 30.321 65.2476 30.0297C65.6276 29.7383 65.8176 29.371 65.8176 28.9277C65.8176 28.4717 65.6149 28.136 65.2096 27.9207C64.8042 27.6927 64.1772 27.471 63.3286 27.2557C62.5559 27.053 61.9226 26.8503 61.4286 26.6477C60.9472 26.4323 60.5292 26.122 60.1746 25.7167C59.8326 25.2987 59.6616 24.754 59.6616 24.0827C59.6616 23.5507 59.8199 23.063 60.1366 22.6197C60.4532 22.1763 60.9029 21.828 61.4856 21.5747C62.0682 21.3087 62.7332 21.1757 63.4806 21.1757C64.6332 21.1757 65.5642 21.467 66.2736 22.0497C66.9829 22.6323 67.3629 23.4303 67.4136 24.4437H65.6846C65.6466 23.899 65.4249 23.462 65.0196 23.1327C64.6269 22.8033 64.0949 22.6387 63.4236 22.6387C62.8029 22.6387 62.3089 22.7717 61.9416 23.0377C61.5742 23.3037 61.3906 23.652 61.3906 24.0827C61.3906 24.4247 61.4982 24.7097 61.7136 24.9377C61.9416 25.153 62.2202 25.3303 62.5496 25.4697C62.8916 25.5963 63.3602 25.742 63.9556 25.9067C64.7029 26.1093 65.3109 26.312 65.7796 26.5147C66.2482 26.7047 66.6472 26.996 66.9766 27.3887C67.3186 27.7813 67.4959 28.2943 67.5086 28.9277C67.5086 29.4977 67.3502 30.0107 67.0336 30.4667C66.7169 30.9227 66.2672 31.2837 65.6846 31.5497C65.1146 31.803 64.4559 31.9297 63.7086 31.9297ZM75.9078 19.6557C75.5784 19.6557 75.2998 19.5417 75.0718 19.3137C74.8438 19.0857 74.7298 18.807 74.7298 18.4777C74.7298 18.1483 74.8438 17.8697 75.0718 17.6417C75.2998 17.4137 75.5784 17.2997 75.9078 17.2997C76.2244 17.2997 76.4904 17.4137 76.7058 17.6417C76.9338 17.8697 77.0478 18.1483 77.0478 18.4777C77.0478 18.807 76.9338 19.0857 76.7058 19.3137C76.4904 19.5417 76.2244 19.6557 75.9078 19.6557ZM76.7438 21.3467V31.7587H75.0148V21.3467H76.7438ZM84.7635 21.1567C86.0302 21.1567 87.0562 21.543 87.8415 22.3157C88.6269 23.0757 89.0195 24.1777 89.0195 25.6217V31.7587H87.3095V25.8687C87.3095 24.83 87.0499 24.0383 86.5305 23.4937C86.0112 22.9363 85.3019 22.6577 84.4025 22.6577C83.4905 22.6577 82.7622 22.9427 82.2175 23.5127C81.6855 24.0827 81.4195 24.9123 81.4195 26.0017V31.7587H79.6905V21.3467H81.4195V22.8287C81.7615 22.2967 82.2239 21.885 82.8065 21.5937C83.4019 21.3023 84.0542 21.1567 84.7635 21.1567ZM96.0809 22.7717H93.8959V31.7587H92.1669V22.7717H90.8179V21.3467H92.1669V20.6057C92.1669 19.4403 92.4645 18.5917 93.0599 18.0597C93.6679 17.515 94.6369 17.2427 95.9669 17.2427V18.6867C95.2069 18.6867 94.6685 18.8387 94.3519 19.1427C94.0479 19.434 93.8959 19.9217 93.8959 20.6057V21.3467H96.0809V22.7717ZM102.638 31.9297C101.662 31.9297 100.776 31.708 99.9778 31.2647C99.1925 30.8213 98.5718 30.1943 98.1158 29.3837C97.6725 28.5603 97.4508 27.6103 97.4508 26.5337C97.4508 25.4697 97.6788 24.5323 98.1348 23.7217C98.6035 22.8983 99.2368 22.2713 100.035 21.8407C100.833 21.3973 101.726 21.1757 102.714 21.1757C103.702 21.1757 104.595 21.3973 105.393 21.8407C106.191 22.2713 106.818 22.892 107.274 23.7027C107.742 24.5133 107.977 25.457 107.977 26.5337C107.977 27.6103 107.736 28.5603 107.255 29.3837C106.786 30.1943 106.146 30.8213 105.336 31.2647C104.525 31.708 103.626 31.9297 102.638 31.9297ZM102.638 30.4097C103.258 30.4097 103.841 30.264 104.386 29.9727C104.93 29.6813 105.367 29.2443 105.697 28.6617C106.039 28.079 106.21 27.3697 106.21 26.5337C106.21 25.6977 106.045 24.9883 105.716 24.4057C105.386 23.823 104.956 23.3923 104.424 23.1137C103.892 22.8223 103.315 22.6767 102.695 22.6767C102.061 22.6767 101.479 22.8223 100.947 23.1137C100.427 23.3923 100.009 23.823 99.6928 24.4057C99.3761 24.9883 99.2178 25.6977 99.2178 26.5337C99.2178 27.3823 99.3698 28.098 99.6738 28.6807C99.9905 29.2633 100.408 29.7003 100.928 29.9917C101.447 30.2703 102.017 30.4097 102.638 30.4097ZM111.979 23.0377C112.283 22.4423 112.714 21.98 113.271 21.6507C113.841 21.3213 114.531 21.1567 115.342 21.1567V22.9427H114.886C112.948 22.9427 111.979 23.994 111.979 26.0967V31.7587H110.25V21.3467H111.979V23.0377ZM129.859 21.1567C130.67 21.1567 131.392 21.3277 132.025 21.6697C132.658 21.999 133.159 22.4993 133.526 23.1707C133.893 23.842 134.077 24.659 134.077 25.6217V31.7587H132.367V25.8687C132.367 24.83 132.107 24.0383 131.588 23.4937C131.081 22.9363 130.391 22.6577 129.517 22.6577C128.618 22.6577 127.902 22.949 127.37 23.5317C126.838 24.1017 126.572 24.9313 126.572 26.0207V31.7587H124.862V25.8687C124.862 24.83 124.602 24.0383 124.083 23.4937C123.576 22.9363 122.886 22.6577 122.012 22.6577C121.113 22.6577 120.397 22.949 119.865 23.5317C119.333 24.1017 119.067 24.9313 119.067 26.0207V31.7587H117.338V21.3467H119.067V22.8477C119.409 22.303 119.865 21.885 120.435 21.5937C121.018 21.3023 121.657 21.1567 122.354 21.1567C123.228 21.1567 124.001 21.353 124.672 21.7457C125.343 22.1383 125.844 22.7147 126.173 23.4747C126.464 22.74 126.946 22.17 127.617 21.7647C128.288 21.3593 129.036 21.1567 129.859 21.1567ZM136.267 26.5147C136.267 25.4507 136.483 24.5197 136.913 23.7217C137.344 22.911 137.933 22.284 138.68 21.8407C139.44 21.3973 140.283 21.1757 141.207 21.1757C142.119 21.1757 142.911 21.372 143.582 21.7647C144.254 22.1573 144.754 22.6513 145.083 23.2467V21.3467H146.831V31.7587H145.083V29.8207C144.741 30.4287 144.228 30.9353 143.544 31.3407C142.873 31.7333 142.088 31.9297 141.188 31.9297C140.264 31.9297 139.428 31.7017 138.68 31.2457C137.933 30.7897 137.344 30.15 136.913 29.3267C136.483 28.5033 136.267 27.566 136.267 26.5147ZM145.083 26.5337C145.083 25.7483 144.925 25.0643 144.608 24.4817C144.292 23.899 143.861 23.4557 143.316 23.1517C142.784 22.835 142.195 22.6767 141.549 22.6767C140.903 22.6767 140.314 22.8287 139.782 23.1327C139.25 23.4367 138.826 23.88 138.509 24.4627C138.193 25.0453 138.034 25.7293 138.034 26.5147C138.034 27.3127 138.193 28.0093 138.509 28.6047C138.826 29.1873 139.25 29.637 139.782 29.9537C140.314 30.2577 140.903 30.4097 141.549 30.4097C142.195 30.4097 142.784 30.2577 143.316 29.9537C143.861 29.637 144.292 29.1873 144.608 28.6047C144.925 28.0093 145.083 27.319 145.083 26.5337ZM154.18 30.4667C154.94 30.4667 155.573 30.2893 156.08 29.9347C156.587 29.58 156.935 29.0733 157.125 28.4147H158.987C158.734 29.4027 158.233 30.2133 157.486 30.8467C156.751 31.4673 155.827 31.822 154.712 31.9107V32.8607C155.459 32.848 156.055 33.0063 156.498 33.3357C156.941 33.665 157.163 34.1337 157.163 34.7417C157.163 35.337 156.948 35.812 156.517 36.1667C156.086 36.5213 155.529 36.6987 154.845 36.6987H152.66V35.5777H154.503C154.921 35.5777 155.225 35.5143 155.415 35.3877C155.618 35.261 155.719 35.0457 155.719 34.7417C155.719 34.4503 155.618 34.2413 155.415 34.1147C155.225 33.988 154.921 33.9247 154.503 33.9247H153.553V31.8917C152.679 31.803 151.906 31.5307 151.235 31.0747C150.564 30.606 150.038 29.9853 149.658 29.2127C149.291 28.4273 149.107 27.5343 149.107 26.5337C149.107 25.457 149.322 24.5197 149.753 23.7217C150.184 22.911 150.779 22.284 151.539 21.8407C152.312 21.3973 153.192 21.1757 154.18 21.1757C155.459 21.1757 156.511 21.486 157.334 22.1067C158.17 22.7273 158.721 23.5887 158.987 24.6907H157.125C156.948 24.0573 156.599 23.557 156.08 23.1897C155.573 22.8223 154.94 22.6387 154.18 22.6387C153.192 22.6387 152.394 22.9807 151.786 23.6647C151.178 24.336 150.874 25.2923 150.874 26.5337C150.874 27.7877 151.178 28.7567 151.786 29.4407C152.394 30.1247 153.192 30.4667 154.18 30.4667ZM165.835 31.9297C164.86 31.9297 163.973 31.708 163.175 31.2647C162.39 30.8213 161.769 30.1943 161.313 29.3837C160.87 28.5603 160.648 27.6103 160.648 26.5337C160.648 25.4697 160.876 24.5323 161.332 23.7217C161.801 22.8983 162.434 22.2713 163.232 21.8407C164.03 21.3973 164.923 21.1757 165.911 21.1757C166.899 21.1757 167.792 21.3973 168.59 21.8407C169.388 22.2713 170.015 22.892 170.471 23.7027C170.94 24.5133 171.174 25.457 171.174 26.5337C171.174 27.6103 170.933 28.5603 170.452 29.3837C169.983 30.1943 169.344 30.8213 168.533 31.2647C167.722 31.708 166.823 31.9297 165.835 31.9297ZM165.835 30.4097C166.456 30.4097 167.038 30.264 167.583 29.9727C168.128 29.6813 168.565 29.2443 168.894 28.6617C169.236 28.079 169.407 27.3697 169.407 26.5337C169.407 25.6977 169.242 24.9883 168.913 24.4057C168.584 23.823 168.153 23.3923 167.621 23.1137C167.089 22.8223 166.513 22.6767 165.892 22.6767C165.259 22.6767 164.676 22.8223 164.144 23.1137C163.625 23.3923 163.207 23.823 162.89 24.4057C162.573 24.9883 162.415 25.6977 162.415 26.5337C162.415 27.3823 162.567 28.098 162.871 28.6807C163.188 29.2633 163.606 29.7003 164.125 29.9917C164.644 30.2703 165.214 30.4097 165.835 30.4097ZM163.137 20.0927C163.226 19.4467 163.435 18.9527 163.764 18.6107C164.106 18.2687 164.53 18.0977 165.037 18.0977C165.278 18.0977 165.48 18.142 165.645 18.2307C165.822 18.3067 166.031 18.4207 166.272 18.5727C166.449 18.6993 166.608 18.8007 166.747 18.8767C166.886 18.94 167.038 18.9717 167.203 18.9717C167.418 18.9717 167.602 18.902 167.754 18.7627C167.906 18.6233 168.001 18.4207 168.039 18.1547H169.027C168.951 18.788 168.742 19.2757 168.4 19.6177C168.058 19.9597 167.634 20.1307 167.127 20.1307C166.886 20.1307 166.671 20.0927 166.481 20.0167C166.304 19.928 166.101 19.8013 165.873 19.6367C165.67 19.51 165.506 19.415 165.379 19.3517C165.265 19.2883 165.126 19.2567 164.961 19.2567C164.746 19.2567 164.562 19.3263 164.41 19.4657C164.271 19.605 164.182 19.814 164.144 20.0927H163.137ZM182.947 26.1537C182.947 26.483 182.928 26.8313 182.89 27.1987H174.568C174.632 28.2247 174.98 29.029 175.613 29.6117C176.259 30.1817 177.038 30.4667 177.95 30.4667C178.698 30.4667 179.318 30.2957 179.812 29.9537C180.319 29.599 180.674 29.1303 180.876 28.5477H182.738C182.46 29.5483 181.902 30.3653 181.066 30.9987C180.23 31.6193 179.192 31.9297 177.95 31.9297C176.962 31.9297 176.076 31.708 175.29 31.2647C174.518 30.8213 173.91 30.1943 173.466 29.3837C173.023 28.5603 172.801 27.6103 172.801 26.5337C172.801 25.457 173.017 24.5133 173.447 23.7027C173.878 22.892 174.48 22.2713 175.252 21.8407C176.038 21.3973 176.937 21.1757 177.95 21.1757C178.938 21.1757 179.812 21.391 180.572 21.8217C181.332 22.2523 181.915 22.8477 182.32 23.6077C182.738 24.355 182.947 25.2037 182.947 26.1537ZM181.161 25.7927C181.161 25.134 181.016 24.5703 180.724 24.1017C180.433 23.6203 180.034 23.2593 179.527 23.0187C179.033 22.7653 178.482 22.6387 177.874 22.6387C177 22.6387 176.253 22.9173 175.632 23.4747C175.024 24.032 174.676 24.8047 174.587 25.7927H181.161ZM188.916 31.9297C188.118 31.9297 187.402 31.7967 186.769 31.5307C186.135 31.252 185.635 30.872 185.268 30.3907C184.9 29.8967 184.698 29.333 184.66 28.6997H186.446C186.496 29.219 186.737 29.6433 187.168 29.9727C187.611 30.302 188.187 30.4667 188.897 30.4667C189.555 30.4667 190.075 30.321 190.455 30.0297C190.835 29.7383 191.025 29.371 191.025 28.9277C191.025 28.4717 190.822 28.136 190.417 27.9207C190.011 27.6927 189.384 27.471 188.536 27.2557C187.763 27.053 187.13 26.8503 186.636 26.6477C186.154 26.4323 185.736 26.122 185.382 25.7167C185.04 25.2987 184.869 24.754 184.869 24.0827C184.869 23.5507 185.027 23.063 185.344 22.6197C185.66 22.1763 186.11 21.828 186.693 21.5747C187.275 21.3087 187.94 21.1757 188.688 21.1757C189.84 21.1757 190.771 21.467 191.481 22.0497C192.19 22.6323 192.57 23.4303 192.621 24.4437H190.892C190.854 23.899 190.632 23.462 190.227 23.1327C189.834 22.8033 189.302 22.6387 188.631 22.6387C188.01 22.6387 187.516 22.7717 187.149 23.0377C186.781 23.3037 186.598 23.652 186.598 24.0827C186.598 24.4247 186.705 24.7097 186.921 24.9377C187.149 25.153 187.427 25.3303 187.757 25.4697C188.099 25.5963 188.567 25.742 189.163 25.9067C189.91 26.1093 190.518 26.312 190.987 26.5147C191.455 26.7047 191.854 26.996 192.184 27.3887C192.526 27.7813 192.703 28.2943 192.716 28.9277C192.716 29.4977 192.557 30.0107 192.241 30.4667C191.924 30.9227 191.474 31.2837 190.892 31.5497C190.322 31.803 189.663 31.9297 188.916 31.9297ZM212.743 21.1567C213.553 21.1567 214.275 21.3277 214.909 21.6697C215.542 21.999 216.042 22.4993 216.41 23.1707C216.777 23.842 216.961 24.659 216.961 25.6217V31.7587H215.251V25.8687C215.251 24.83 214.991 24.0383 214.472 23.4937C213.965 22.9363 213.275 22.6577 212.401 22.6577C211.501 22.6577 210.786 22.949 210.254 23.5317C209.722 24.1017 209.456 24.9313 209.456 26.0207V31.7587H207.746V25.8687C207.746 24.83 207.486 24.0383 206.967 23.4937C206.46 22.9363 205.77 22.6577 204.896 22.6577C203.996 22.6577 203.281 22.949 202.749 23.5317C202.217 24.1017 201.951 24.9313 201.951 26.0207V31.7587H200.222V21.3467H201.951V22.8477C202.293 22.303 202.749 21.885 203.319 21.5937C203.901 21.3023 204.541 21.1567 205.238 21.1567C206.112 21.1567 206.884 21.353 207.556 21.7457C208.227 22.1383 208.727 22.7147 209.057 23.4747C209.348 22.74 209.829 22.17 210.501 21.7647C211.172 21.3593 211.919 21.1567 212.743 21.1567ZM220.69 19.6557C220.361 19.6557 220.082 19.5417 219.854 19.3137C219.626 19.0857 219.512 18.807 219.512 18.4777C219.512 18.1483 219.626 17.8697 219.854 17.6417C220.082 17.4137 220.361 17.2997 220.69 17.2997C221.007 17.2997 221.273 17.4137 221.488 17.6417C221.716 17.8697 221.83 18.1483 221.83 18.4777C221.83 18.807 221.716 19.0857 221.488 19.3137C221.273 19.5417 221.007 19.6557 220.69 19.6557ZM221.526 21.3467V31.7587H219.797V21.3467H221.526ZM229.546 21.1567C230.812 21.1567 231.838 21.543 232.624 22.3157C233.409 23.0757 233.802 24.1777 233.802 25.6217V31.7587H232.092V25.8687C232.092 24.83 231.832 24.0383 231.313 23.4937C230.793 22.9363 230.084 22.6577 229.185 22.6577C228.273 22.6577 227.544 22.9427 227 23.5127C226.468 24.0827 226.202 24.9123 226.202 26.0017V31.7587H224.473V21.3467H226.202V22.8287C226.544 22.2967 227.006 21.885 227.589 21.5937C228.184 21.3023 228.836 21.1567 229.546 21.1567ZM241.794 21.1567C242.579 21.1567 243.289 21.3277 243.922 21.6697C244.555 21.999 245.049 22.4993 245.404 23.1707C245.771 23.842 245.955 24.659 245.955 25.6217V31.7587H244.245V25.8687C244.245 24.83 243.985 24.0383 243.466 23.4937C242.947 22.9363 242.237 22.6577 241.338 22.6577C240.426 22.6577 239.698 22.9427 239.153 23.5127C238.621 24.0827 238.355 24.9123 238.355 26.0017V31.7587H236.626V17.6987H238.355V22.8287C238.697 22.2967 239.166 21.885 239.761 21.5937C240.369 21.3023 241.047 21.1567 241.794 21.1567ZM248.133 26.5147C248.133 25.4507 248.349 24.5197 248.779 23.7217C249.21 22.911 249.799 22.284 250.546 21.8407C251.306 21.3973 252.149 21.1757 253.073 21.1757C253.985 21.1757 254.777 21.372 255.448 21.7647C256.12 22.1573 256.62 22.6513 256.949 23.2467V21.3467H258.697V31.7587H256.949V29.8207C256.607 30.4287 256.094 30.9353 255.41 31.3407C254.739 31.7333 253.954 31.9297 253.054 31.9297C252.13 31.9297 251.294 31.7017 250.546 31.2457C249.799 30.7897 249.21 30.15 248.779 29.3267C248.349 28.5033 248.133 27.566 248.133 26.5147ZM256.949 26.5337C256.949 25.7483 256.791 25.0643 256.474 24.4817C256.158 23.899 255.727 23.4557 255.182 23.1517C254.65 22.835 254.061 22.6767 253.415 22.6767C252.769 22.6767 252.18 22.8287 251.648 23.1327C251.116 23.4367 250.692 23.88 250.375 24.4627C250.059 25.0453 249.9 25.7293 249.9 26.5147C249.9 27.3127 250.059 28.0093 250.375 28.6047C250.692 29.1873 251.116 29.637 251.648 29.9537C252.18 30.2577 252.769 30.4097 253.415 30.4097C254.061 30.4097 254.65 30.2577 255.182 29.9537C255.727 29.637 256.158 29.1873 256.474 28.6047C256.791 28.0093 256.949 27.319 256.949 26.5337ZM265.305 31.9297C264.507 31.9297 263.792 31.7967 263.158 31.5307C262.525 31.252 262.025 30.872 261.657 30.3907C261.29 29.8967 261.087 29.333 261.049 28.6997H262.835C262.886 29.219 263.127 29.6433 263.557 29.9727C264.001 30.302 264.577 30.4667 265.286 30.4667C265.945 30.4667 266.464 30.321 266.844 30.0297C267.224 29.7383 267.414 29.371 267.414 28.9277C267.414 28.4717 267.212 28.136 266.806 27.9207C266.401 27.6927 265.774 27.471 264.925 27.2557C264.153 27.053 263.519 26.8503 263.025 26.6477C262.544 26.4323 262.126 26.122 261.771 25.7167C261.429 25.2987 261.258 24.754 261.258 24.0827C261.258 23.5507 261.417 23.063 261.733 22.6197C262.05 22.1763 262.5 21.828 263.082 21.5747C263.665 21.3087 264.33 21.1757 265.077 21.1757C266.23 21.1757 267.161 21.467 267.87 22.0497C268.58 22.6323 268.96 23.4303 269.01 24.4437H267.281C267.243 23.899 267.022 23.462 266.616 23.1327C266.224 22.8033 265.692 22.6387 265.02 22.6387C264.4 22.6387 263.906 22.7717 263.538 23.0377C263.171 23.3037 262.987 23.652 262.987 24.0827C262.987 24.4247 263.095 24.7097 263.31 24.9377C263.538 25.153 263.817 25.3303 264.146 25.4697C264.488 25.5963 264.957 25.742 265.552 25.9067C266.3 26.1093 266.908 26.312 267.376 26.5147C267.845 26.7047 268.244 26.996 268.573 27.3887C268.915 27.7813 269.093 28.2943 269.105 28.9277C269.105 29.4977 268.947 30.0107 268.63 30.4667C268.314 30.9227 267.864 31.2837 267.281 31.5497C266.711 31.803 266.053 31.9297 265.305 31.9297ZM51.4132 55.1537C51.4132 55.483 51.3942 55.8313 51.3562 56.1987H43.0342C43.0975 57.2247 43.4459 58.029 44.0792 58.6117C44.7252 59.1817 45.5042 59.4667 46.4162 59.4667C47.1635 59.4667 47.7842 59.2957 48.2782 58.9537C48.7849 58.599 49.1395 58.1303 49.3422 57.5477H51.2042C50.9255 58.5483 50.3682 59.3653 49.5322 59.9987C48.6962 60.6193 47.6575 60.9297 46.4162 60.9297C45.4282 60.9297 44.5415 60.708 43.7562 60.2647C42.9835 59.8213 42.3755 59.1943 41.9322 58.3837C41.4889 57.5603 41.2672 56.6103 41.2672 55.5337C41.2672 54.457 41.4825 53.5133 41.9132 52.7027C42.3439 51.892 42.9455 51.2713 43.7182 50.8407C44.5035 50.3973 45.4029 50.1757 46.4162 50.1757C47.4042 50.1757 48.2782 50.391 49.0382 50.8217C49.7982 51.2523 50.3809 51.8477 50.7862 52.6077C51.2042 53.355 51.4132 54.2037 51.4132 55.1537ZM49.6272 54.7927C49.6272 54.134 49.4815 53.5703 49.1902 53.1017C48.8989 52.6203 48.4999 52.2593 47.9932 52.0187C47.4992 51.7653 46.9482 51.6387 46.3402 51.6387C45.4662 51.6387 44.7189 51.9173 44.0982 52.4747C43.4902 53.032 43.1419 53.8047 43.0532 54.7927H49.6272ZM57.3814 60.9297C56.5834 60.9297 55.8678 60.7967 55.2344 60.5307C54.6011 60.252 54.1008 59.872 53.7334 59.3907C53.3661 58.8967 53.1634 58.333 53.1254 57.6997H54.9114C54.9621 58.219 55.2028 58.6433 55.6334 58.9727C56.0768 59.302 56.6531 59.4667 57.3624 59.4667C58.0211 59.4667 58.5404 59.321 58.9204 59.0297C59.3004 58.7383 59.4904 58.371 59.4904 57.9277C59.4904 57.4717 59.2878 57.136 58.8824 56.9207C58.4771 56.6927 57.8501 56.471 57.0014 56.2557C56.2288 56.053 55.5954 55.8503 55.1014 55.6477C54.6201 55.4323 54.2021 55.122 53.8474 54.7167C53.5054 54.2987 53.3344 53.754 53.3344 53.0827C53.3344 52.5507 53.4928 52.063 53.8094 51.6197C54.1261 51.1763 54.5758 50.828 55.1584 50.5747C55.7411 50.3087 56.4061 50.1757 57.1534 50.1757C58.3061 50.1757 59.2371 50.467 59.9464 51.0497C60.6558 51.6323 61.0358 52.4303 61.0864 53.4437H59.3574C59.3194 52.899 59.0978 52.462 58.6924 52.1327C58.2998 51.8033 57.7678 51.6387 57.0964 51.6387C56.4758 51.6387 55.9818 51.7717 55.6144 52.0377C55.2471 52.3037 55.0634 52.652 55.0634 53.0827C55.0634 53.4247 55.1711 53.7097 55.3864 53.9377C55.6144 54.153 55.8931 54.3303 56.2224 54.4697C56.5644 54.5963 57.0331 54.742 57.6284 54.9067C58.3758 55.1093 58.9838 55.312 59.4524 55.5147C59.9211 55.7047 60.3201 55.996 60.6494 56.3887C60.9914 56.7813 61.1688 57.2943 61.1814 57.9277C61.1814 58.4977 61.0231 59.0107 60.7064 59.4667C60.3898 59.9227 59.9401 60.2837 59.3574 60.5497C58.7874 60.803 58.1288 60.9297 57.3814 60.9297ZM65.7312 51.7717V57.9087C65.7312 58.4153 65.8388 58.7763 66.0542 58.9917C66.2695 59.1943 66.6432 59.2957 67.1752 59.2957H68.4482V60.7587H66.8902C65.9275 60.7587 65.2055 60.537 64.7242 60.0937C64.2428 59.6503 64.0022 58.922 64.0022 57.9087V51.7717H62.6532V50.3467H64.0022V47.7247H65.7312V50.3467H68.4482V51.7717H65.7312ZM69.8971 55.5147C69.8971 54.4507 70.1124 53.5197 70.5431 52.7217C70.9737 51.911 71.5627 51.284 72.3101 50.8407C73.0701 50.3973 73.9124 50.1757 74.8371 50.1757C75.7491 50.1757 76.5407 50.372 77.2121 50.7647C77.8834 51.1573 78.3837 51.6513 78.7131 52.2467V50.3467H80.4611V60.7587H78.7131V58.8207C78.3711 59.4287 77.8581 59.9353 77.1741 60.3407C76.5027 60.7333 75.7174 60.9297 74.8181 60.9297C73.8934 60.9297 73.0574 60.7017 72.3101 60.2457C71.5627 59.7897 70.9737 59.15 70.5431 58.3267C70.1124 57.5033 69.8971 56.566 69.8971 55.5147ZM78.7131 55.5337C78.7131 54.7483 78.5547 54.0643 78.2381 53.4817C77.9214 52.899 77.4907 52.4557 76.9461 52.1517C76.4141 51.835 75.8251 51.6767 75.1791 51.6767C74.5331 51.6767 73.9441 51.8287 73.4121 52.1327C72.8801 52.4367 72.4557 52.88 72.1391 53.4627C71.8224 54.0453 71.6641 54.7293 71.6641 55.5147C71.6641 56.3127 71.8224 57.0093 72.1391 57.6047C72.4557 58.1873 72.8801 58.637 73.4121 58.9537C73.9441 59.2577 74.5331 59.4097 75.1791 59.4097C75.8251 59.4097 76.4141 59.2577 76.9461 58.9537C77.4907 58.637 77.9214 58.1873 78.2381 57.6047C78.5547 57.0093 78.7131 56.319 78.7131 55.5337ZM72.7281 49.2257C72.8167 48.5797 73.0257 48.0857 73.3551 47.7437C73.6971 47.4017 74.1214 47.2307 74.6281 47.2307C74.8687 47.2307 75.0714 47.275 75.2361 47.3637C75.4134 47.4397 75.6224 47.5537 75.8631 47.7057C76.0404 47.8323 76.1987 47.9337 76.3381 48.0097C76.4774 48.073 76.6294 48.1047 76.7941 48.1047C77.0094 48.1047 77.1931 48.035 77.3451 47.8957C77.4971 47.7563 77.5921 47.5537 77.6301 47.2877H78.6181C78.5421 47.921 78.3331 48.4087 77.9911 48.7507C77.6491 49.0927 77.2247 49.2637 76.7181 49.2637C76.4774 49.2637 76.2621 49.2257 76.0721 49.1497C75.8947 49.061 75.6921 48.9343 75.4641 48.7697C75.2614 48.643 75.0967 48.548 74.9701 48.4847C74.8561 48.4213 74.7167 48.3897 74.5521 48.3897C74.3367 48.3897 74.1531 48.4593 74.0011 48.5987C73.8617 48.738 73.7731 48.947 73.7351 49.2257H72.7281ZM87.9239 60.9297C86.9486 60.9297 86.0619 60.708 85.2639 60.2647C84.4786 59.8213 83.8579 59.1943 83.4019 58.3837C82.9586 57.5603 82.7369 56.6103 82.7369 55.5337C82.7369 54.4697 82.9649 53.5323 83.4209 52.7217C83.8896 51.8983 84.5229 51.2713 85.3209 50.8407C86.1189 50.3973 87.0119 50.1757 87.9999 50.1757C88.9879 50.1757 89.8809 50.3973 90.6789 50.8407C91.4769 51.2713 92.1039 51.892 92.5599 52.7027C93.0286 53.5133 93.2629 54.457 93.2629 55.5337C93.2629 56.6103 93.0223 57.5603 92.5409 58.3837C92.0723 59.1943 91.4326 59.8213 90.6219 60.2647C89.8113 60.708 88.9119 60.9297 87.9239 60.9297ZM87.9239 59.4097C88.5446 59.4097 89.1273 59.264 89.6719 58.9727C90.2166 58.6813 90.6536 58.2443 90.9829 57.6617C91.3249 57.079 91.4959 56.3697 91.4959 55.5337C91.4959 54.6977 91.3313 53.9883 91.0019 53.4057C90.6726 52.823 90.2419 52.3923 89.7099 52.1137C89.1779 51.8223 88.6016 51.6767 87.9809 51.6767C87.3476 51.6767 86.7649 51.8223 86.2329 52.1137C85.7136 52.3923 85.2956 52.823 84.9789 53.4057C84.6623 53.9883 84.5039 54.6977 84.5039 55.5337C84.5039 56.3823 84.6559 57.098 84.9599 57.6807C85.2766 58.2633 85.6946 58.7003 86.2139 58.9917C86.7333 59.2703 87.3033 59.4097 87.9239 59.4097ZM104.288 60.9297C103.49 60.9297 102.774 60.7967 102.141 60.5307C101.507 60.252 101.007 59.872 100.64 59.3907C100.272 58.8967 100.07 58.333 100.032 57.6997H101.818C101.868 58.219 102.109 58.6433 102.54 58.9727C102.983 59.302 103.559 59.4667 104.269 59.4667C104.927 59.4667 105.447 59.321 105.827 59.0297C106.207 58.7383 106.397 58.371 106.397 57.9277C106.397 57.4717 106.194 57.136 105.789 56.9207C105.383 56.6927 104.756 56.471 103.908 56.2557C103.135 56.053 102.502 55.8503 102.008 55.6477C101.526 55.4323 101.108 55.122 100.754 54.7167C100.412 54.2987 100.241 53.754 100.241 53.0827C100.241 52.5507 100.399 52.063 100.716 51.6197C101.032 51.1763 101.482 50.828 102.065 50.5747C102.647 50.3087 103.312 50.1757 104.06 50.1757C105.212 50.1757 106.143 50.467 106.853 51.0497C107.562 51.6323 107.942 52.4303 107.993 53.4437H106.264C106.226 52.899 106.004 52.462 105.599 52.1327C105.206 51.8033 104.674 51.6387 104.003 51.6387C103.382 51.6387 102.888 51.7717 102.521 52.0377C102.153 52.3037 101.97 52.652 101.97 53.0827C101.97 53.4247 102.077 53.7097 102.293 53.9377C102.521 54.153 102.799 54.3303 103.129 54.4697C103.471 54.5963 103.939 54.742 104.535 54.9067C105.282 55.1093 105.89 55.312 106.359 55.5147C106.827 55.7047 107.226 55.996 107.556 56.3887C107.898 56.7813 108.075 57.2943 108.088 57.9277C108.088 58.4977 107.929 59.0107 107.613 59.4667C107.296 59.9227 106.846 60.2837 106.264 60.5497C105.694 60.803 105.035 60.9297 104.288 60.9297ZM120.028 55.1537C120.028 55.483 120.009 55.8313 119.971 56.1987H111.649C111.713 57.2247 112.061 58.029 112.694 58.6117C113.34 59.1817 114.119 59.4667 115.031 59.4667C115.779 59.4667 116.399 59.2957 116.893 58.9537C117.4 58.599 117.755 58.1303 117.957 57.5477H119.819C119.541 58.5483 118.983 59.3653 118.147 59.9987C117.311 60.6193 116.273 60.9297 115.031 60.9297C114.043 60.9297 113.157 60.708 112.371 60.2647C111.599 59.8213 110.991 59.1943 110.547 58.3837C110.104 57.5603 109.882 56.6103 109.882 55.5337C109.882 54.457 110.098 53.5133 110.528 52.7027C110.959 51.892 111.561 51.2713 112.333 50.8407C113.119 50.3973 114.018 50.1757 115.031 50.1757C116.019 50.1757 116.893 50.391 117.653 50.8217C118.413 51.2523 118.996 51.8477 119.401 52.6077C119.819 53.355 120.028 54.2037 120.028 55.1537ZM118.242 54.7927C118.242 54.134 118.097 53.5703 117.805 53.1017C117.514 52.6203 117.115 52.2593 116.608 52.0187C116.114 51.7653 115.563 51.6387 114.955 51.6387C114.081 51.6387 113.334 51.9173 112.713 52.4747C112.105 53.032 111.757 53.8047 111.668 54.7927H118.242ZM127.384 50.1567C128.65 50.1567 129.676 50.543 130.462 51.3157C131.247 52.0757 131.64 53.1777 131.64 54.6217V60.7587H129.93V54.8687C129.93 53.83 129.67 53.0383 129.151 52.4937C128.631 51.9363 127.922 51.6577 127.023 51.6577C126.111 51.6577 125.382 51.9427 124.838 52.5127C124.306 53.0827 124.04 53.9123 124.04 55.0017V60.7587H122.311V50.3467H124.04V51.8287C124.382 51.2967 124.844 50.885 125.427 50.5937C126.022 50.3023 126.674 50.1567 127.384 50.1567ZM133.818 55.5147C133.818 54.4507 134.033 53.5197 134.464 52.7217C134.895 51.911 135.484 51.284 136.231 50.8407C136.991 50.3973 137.84 50.1757 138.777 50.1757C139.588 50.1757 140.341 50.3657 141.038 50.7457C141.735 51.113 142.267 51.6007 142.634 52.2087V46.6987H144.382V60.7587H142.634V58.8017C142.292 59.4223 141.785 59.9353 141.114 60.3407C140.443 60.7333 139.657 60.9297 138.758 60.9297C137.833 60.9297 136.991 60.7017 136.231 60.2457C135.484 59.7897 134.895 59.15 134.464 58.3267C134.033 57.5033 133.818 56.566 133.818 55.5147ZM142.634 55.5337C142.634 54.7483 142.476 54.0643 142.159 53.4817C141.842 52.899 141.412 52.4557 140.867 52.1517C140.335 51.835 139.746 51.6767 139.1 51.6767C138.454 51.6767 137.865 51.8287 137.333 52.1327C136.801 52.4367 136.377 52.88 136.06 53.4627C135.743 54.0453 135.585 54.7293 135.585 55.5147C135.585 56.3127 135.743 57.0093 136.06 57.6047C136.377 58.1873 136.801 58.637 137.333 58.9537C137.865 59.2577 138.454 59.4097 139.1 59.4097C139.746 59.4097 140.335 59.2577 140.867 58.9537C141.412 58.637 141.842 58.1873 142.159 57.6047C142.476 57.0093 142.634 56.319 142.634 55.5337ZM151.845 60.9297C150.869 60.9297 149.983 60.708 149.185 60.2647C148.399 59.8213 147.779 59.1943 147.323 58.3837C146.879 57.5603 146.658 56.6103 146.658 55.5337C146.658 54.4697 146.886 53.5323 147.342 52.7217C147.81 51.8983 148.444 51.2713 149.242 50.8407C150.04 50.3973 150.933 50.1757 151.921 50.1757C152.909 50.1757 153.802 50.3973 154.6 50.8407C155.398 51.2713 156.025 51.892 156.481 52.7027C156.949 53.5133 157.184 54.457 157.184 55.5337C157.184 56.6103 156.943 57.5603 156.462 58.3837C155.993 59.1943 155.353 59.8213 154.543 60.2647C153.732 60.708 152.833 60.9297 151.845 60.9297ZM151.845 59.4097C152.465 59.4097 153.048 59.264 153.593 58.9727C154.137 58.6813 154.574 58.2443 154.904 57.6617C155.246 57.079 155.417 56.3697 155.417 55.5337C155.417 54.6977 155.252 53.9883 154.923 53.4057C154.593 52.823 154.163 52.3923 153.631 52.1137C153.099 51.8223 152.522 51.6767 151.902 51.6767C151.268 51.6767 150.686 51.8223 150.154 52.1137C149.634 52.3923 149.216 52.823 148.9 53.4057C148.583 53.9883 148.425 54.6977 148.425 55.5337C148.425 56.3823 148.577 57.098 148.881 57.6807C149.197 58.2633 149.615 58.7003 150.135 58.9917C150.654 59.2703 151.224 59.4097 151.845 59.4097ZM173.757 50.3467V60.7587H172.028V59.2197C171.698 59.7517 171.236 60.1697 170.641 60.4737C170.058 60.765 169.412 60.9107 168.703 60.9107C167.892 60.9107 167.164 60.746 166.518 60.4167C165.872 60.0747 165.359 59.568 164.979 58.8967C164.611 58.2253 164.428 57.4083 164.428 56.4457V50.3467H166.138V56.2177C166.138 57.2437 166.397 58.0353 166.917 58.5927C167.436 59.1373 168.145 59.4097 169.045 59.4097C169.969 59.4097 170.698 59.1247 171.23 58.5547C171.762 57.9847 172.028 57.155 172.028 56.0657V50.3467H173.757ZM180.362 60.9297C179.564 60.9297 178.848 60.7967 178.215 60.5307C177.582 60.252 177.081 59.872 176.714 59.3907C176.347 58.8967 176.144 58.333 176.106 57.6997H177.892C177.943 58.219 178.183 58.6433 178.614 58.9727C179.057 59.302 179.634 59.4667 180.343 59.4667C181.002 59.4667 181.521 59.321 181.901 59.0297C182.281 58.7383 182.471 58.371 182.471 57.9277C182.471 57.4717 182.268 57.136 181.863 56.9207C181.458 56.6927 180.831 56.471 179.982 56.2557C179.209 56.053 178.576 55.8503 178.082 55.6477C177.601 55.4323 177.183 55.122 176.828 54.7167C176.486 54.2987 176.315 53.754 176.315 53.0827C176.315 52.5507 176.473 52.063 176.79 51.6197C177.107 51.1763 177.556 50.828 178.139 50.5747C178.722 50.3087 179.387 50.1757 180.134 50.1757C181.287 50.1757 182.218 50.467 182.927 51.0497C183.636 51.6323 184.016 52.4303 184.067 53.4437H182.338C182.3 52.899 182.078 52.462 181.673 52.1327C181.28 51.8033 180.748 51.6387 180.077 51.6387C179.456 51.6387 178.962 51.7717 178.595 52.0377C178.228 52.3037 178.044 52.652 178.044 53.0827C178.044 53.4247 178.152 53.7097 178.367 53.9377C178.595 54.153 178.874 54.3303 179.203 54.4697C179.545 54.5963 180.014 54.742 180.609 54.9067C181.356 55.1093 181.964 55.312 182.433 55.5147C182.902 55.7047 183.301 55.996 183.63 56.3887C183.972 56.7813 184.149 57.2943 184.162 57.9277C184.162 58.4977 184.004 59.0107 183.687 59.4667C183.37 59.9227 182.921 60.2837 182.338 60.5497C181.768 60.803 181.109 60.9297 180.362 60.9297ZM185.957 55.5147C185.957 54.4507 186.172 53.5197 186.603 52.7217C187.033 51.911 187.622 51.284 188.37 50.8407C189.13 50.3973 189.972 50.1757 190.897 50.1757C191.809 50.1757 192.6 50.372 193.272 50.7647C193.943 51.1573 194.443 51.6513 194.773 52.2467V50.3467H196.521V60.7587H194.773V58.8207C194.431 59.4287 193.918 59.9353 193.234 60.3407C192.562 60.7333 191.777 60.9297 190.878 60.9297C189.953 60.9297 189.117 60.7017 188.37 60.2457C187.622 59.7897 187.033 59.15 186.603 58.3267C186.172 57.5033 185.957 56.566 185.957 55.5147ZM194.773 55.5337C194.773 54.7483 194.614 54.0643 194.298 53.4817C193.981 52.899 193.55 52.4557 193.006 52.1517C192.474 51.835 191.885 51.6767 191.239 51.6767C190.593 51.6767 190.004 51.8287 189.472 52.1327C188.94 52.4367 188.515 52.88 188.199 53.4627C187.882 54.0453 187.724 54.7293 187.724 55.5147C187.724 56.3127 187.882 57.0093 188.199 57.6047C188.515 58.1873 188.94 58.637 189.472 58.9537C190.004 59.2577 190.593 59.4097 191.239 59.4097C191.885 59.4097 192.474 59.2577 193.006 58.9537C193.55 58.637 193.981 58.1873 194.298 57.6047C194.614 57.0093 194.773 56.319 194.773 55.5337ZM198.796 55.5147C198.796 54.4507 199.012 53.5197 199.442 52.7217C199.873 51.911 200.462 51.284 201.209 50.8407C201.969 50.3973 202.818 50.1757 203.755 50.1757C204.566 50.1757 205.32 50.3657 206.016 50.7457C206.713 51.113 207.245 51.6007 207.612 52.2087V46.6987H209.36V60.7587H207.612V58.8017C207.27 59.4223 206.764 59.9353 206.092 60.3407C205.421 60.7333 204.636 60.9297 203.736 60.9297C202.812 60.9297 201.969 60.7017 201.209 60.2457C200.462 59.7897 199.873 59.15 199.442 58.3267C199.012 57.5033 198.796 56.566 198.796 55.5147ZM207.612 55.5337C207.612 54.7483 207.454 54.0643 207.137 53.4817C206.821 52.899 206.39 52.4557 205.845 52.1517C205.313 51.835 204.724 51.6767 204.078 51.6767C203.432 51.6767 202.843 51.8287 202.311 52.1327C201.779 52.4367 201.355 52.88 201.038 53.4627C200.722 54.0453 200.563 54.7293 200.563 55.5147C200.563 56.3127 200.722 57.0093 201.038 57.6047C201.355 58.1873 201.779 58.637 202.311 58.9537C202.843 59.2577 203.432 59.4097 204.078 59.4097C204.724 59.4097 205.313 59.2577 205.845 58.9537C206.39 58.637 206.821 58.1873 207.137 57.6047C207.454 57.0093 207.612 56.319 207.612 55.5337ZM211.636 55.5147C211.636 54.4507 211.852 53.5197 212.282 52.7217C212.713 51.911 213.302 51.284 214.049 50.8407C214.809 50.3973 215.652 50.1757 216.576 50.1757C217.488 50.1757 218.28 50.372 218.951 50.7647C219.623 51.1573 220.123 51.6513 220.452 52.2467V50.3467H222.2V60.7587H220.452V58.8207C220.11 59.4287 219.597 59.9353 218.913 60.3407C218.242 60.7333 217.457 60.9297 216.557 60.9297C215.633 60.9297 214.797 60.7017 214.049 60.2457C213.302 59.7897 212.713 59.15 212.282 58.3267C211.852 57.5033 211.636 56.566 211.636 55.5147ZM220.452 55.5337C220.452 54.7483 220.294 54.0643 219.977 53.4817C219.661 52.899 219.23 52.4557 218.685 52.1517C218.153 51.835 217.564 51.6767 216.918 51.6767C216.272 51.6767 215.683 51.8287 215.151 52.1327C214.619 52.4367 214.195 52.88 213.878 53.4627C213.562 54.0453 213.403 54.7293 213.403 55.5147C213.403 56.3127 213.562 57.0093 213.878 57.6047C214.195 58.1873 214.619 58.637 215.151 58.9537C215.683 59.2577 216.272 59.4097 216.918 59.4097C217.564 59.4097 218.153 59.2577 218.685 58.9537C219.23 58.637 219.661 58.1873 219.977 57.6047C220.294 57.0093 220.452 56.319 220.452 55.5337ZM228.808 60.9297C228.01 60.9297 227.295 60.7967 226.661 60.5307C226.028 60.252 225.528 59.872 225.16 59.3907C224.793 58.8967 224.59 58.333 224.552 57.6997H226.338C226.389 58.219 226.63 58.6433 227.06 58.9727C227.504 59.302 228.08 59.4667 228.789 59.4667C229.448 59.4667 229.967 59.321 230.347 59.0297C230.727 58.7383 230.917 58.371 230.917 57.9277C230.917 57.4717 230.715 57.136 230.309 56.9207C229.904 56.6927 229.277 56.471 228.428 56.2557C227.656 56.053 227.022 55.8503 226.528 55.6477C226.047 55.4323 225.629 55.122 225.274 54.7167C224.932 54.2987 224.761 53.754 224.761 53.0827C224.761 52.5507 224.92 52.063 225.236 51.6197C225.553 51.1763 226.003 50.828 226.585 50.5747C227.168 50.3087 227.833 50.1757 228.58 50.1757C229.733 50.1757 230.664 50.467 231.373 51.0497C232.083 51.6323 232.463 52.4303 232.513 53.4437H230.784C230.746 52.899 230.525 52.462 230.119 52.1327C229.727 51.8033 229.195 51.6387 228.523 51.6387C227.903 51.6387 227.409 51.7717 227.041 52.0377C226.674 52.3037 226.49 52.652 226.49 53.0827C226.49 53.4247 226.598 53.7097 226.813 53.9377C227.041 54.153 227.32 54.3303 227.649 54.4697C227.991 54.5963 228.46 54.742 229.055 54.9067C229.803 55.1093 230.411 55.312 230.879 55.5147C231.348 55.7047 231.747 55.996 232.076 56.3887C232.418 56.7813 232.596 57.2943 232.608 57.9277C232.608 58.4977 232.45 59.0107 232.133 59.4667C231.817 59.9227 231.367 60.2837 230.784 60.5497C230.214 60.803 229.556 60.9297 228.808 60.9297ZM238.431 47.3447C239.685 47.3447 240.698 47.6993 241.471 48.4087C242.244 49.118 242.63 50.068 242.63 51.2587C242.63 52.5887 242.218 53.5767 241.395 54.2227C240.572 54.856 239.457 55.1727 238.051 55.1727L237.994 56.9777H236.493L236.417 53.9757H236.968C238.222 53.9757 239.204 53.7857 239.913 53.4057C240.622 53.0257 240.977 52.31 240.977 51.2587C240.977 50.4987 240.749 49.897 240.293 49.4537C239.837 49.0103 239.223 48.7887 238.45 48.7887C237.665 48.7887 237.044 49.004 236.588 49.4347C236.145 49.8527 235.923 50.429 235.923 51.1637H234.289C234.289 50.4037 234.46 49.7387 234.802 49.1687C235.144 48.586 235.625 48.1363 236.246 47.8197C236.879 47.503 237.608 47.3447 238.431 47.3447ZM237.234 60.8727C236.905 60.8727 236.626 60.7587 236.398 60.5307C236.17 60.3027 236.056 60.024 236.056 59.6947C236.056 59.3653 236.17 59.0867 236.398 58.8587C236.626 58.6307 236.905 58.5167 237.234 58.5167C237.551 58.5167 237.817 58.6307 238.032 58.8587C238.26 59.0867 238.374 59.3653 238.374 59.6947C238.374 60.024 238.26 60.3027 238.032 60.5307C237.817 60.7587 237.551 60.8727 237.234 60.8727Z" fill="#AAE1D6"/>
</svg>
