<svg width="142" height="135" viewBox="0 0 142 135" fill="none" xmlns="http://www.w3.org/2000/svg">
<path d="M1.30783 65.849C1.48453 75.389 4.04537 84.7408 8.78179 93.1428C14.4 103.212 22.8858 111.589 33.2886 117.334C43.6915 123.079 55.6005 125.965 67.6819 125.67C77.7858 125.445 87.7052 122.969 96.632 118.445L140.557 131.096L125.136 90.2592C129.51 81.6314 131.67 72.1626 131.441 62.6238C131.193 51.2172 127.587 40.1204 121.026 30.5763C114.465 21.0323 105.209 13.418 94.2936 8.58634C85.1838 4.50897 75.1695 2.52721 65.0667 2.80248L61.2392 2.89733C45.3015 4.12387 30.3667 10.8559 19.2944 21.8045C8.22218 32.753 1.7905 47.1487 1.23091 62.2352L1.30783 65.849Z" fill="#09389C" stroke="#09389C" stroke-width="2" stroke-linecap="round" stroke-linejoin="round"/>
<path d="M68.95 35.46C74.89 35.46 79.69 37.14 83.35 40.5C87.01 43.86 88.84 48.36 88.84 54C88.84 60.3 86.89 64.98 82.99 68.04C79.09 71.04 73.81 72.54 67.15 72.54L66.88 81.09H59.77L59.41 66.87H62.02C67.96 66.87 72.61 65.97 75.97 64.17C79.33 62.37 81.01 58.98 81.01 54C81.01 50.4 79.93 47.55 77.77 45.45C75.61 43.35 72.7 42.3 69.04 42.3C65.32 42.3 62.38 43.32 60.22 45.36C58.12 47.34 57.07 50.07 57.07 53.55H49.33C49.33 49.95 50.14 46.8 51.76 44.1C53.38 41.34 55.66 39.21 58.6 37.71C61.6 36.21 65.05 35.46 68.95 35.46ZM63.28 99.54C61.72 99.54 60.4 99 59.32 97.92C58.24 96.84 57.7 95.52 57.7 93.96C57.7 92.4 58.24 91.08 59.32 90C60.4 88.92 61.72 88.38 63.28 88.38C64.78 88.38 66.04 88.92 67.06 90C68.14 91.08 68.68 92.4 68.68 93.96C68.68 95.52 68.14 96.84 67.06 97.92C66.04 99 64.78 99.54 63.28 99.54Z" fill="#FCFCFC"/>
<path d="M83.35 40.5L84.7025 39.0267L84.7025 39.0267L83.35 40.5ZM82.99 68.04L84.2094 69.6252L84.217 69.6194L84.2246 69.6135L82.99 68.04ZM67.15 72.54V70.54H65.2122L65.151 72.4769L67.15 72.54ZM66.88 81.09V83.09H68.8178L68.879 81.1531L66.88 81.09ZM59.77 81.09L57.7706 81.1406L57.82 83.09H59.77V81.09ZM59.41 66.87V64.87H57.3587L57.4106 66.9206L59.41 66.87ZM75.97 64.17L75.0256 62.407L75.0256 62.407L75.97 64.17ZM60.22 45.36L61.592 46.8152L61.5932 46.814L60.22 45.36ZM57.07 53.55V55.55H59.07V53.55H57.07ZM49.33 53.55H47.33V55.55H49.33V53.55ZM51.76 44.1L53.475 45.129L53.4799 45.1207L53.4848 45.1124L51.76 44.1ZM58.6 37.71L57.7056 35.9211L57.6983 35.9248L57.6911 35.9285L58.6 37.71ZM59.32 97.92L57.9058 99.3342L57.9058 99.3342L59.32 97.92ZM59.32 90L57.9058 88.5858L57.9058 88.5858L59.32 90ZM67.06 90L65.606 91.3732L65.6256 91.394L65.6458 91.4142L67.06 90ZM67.06 97.92L65.6458 96.5058L65.6256 96.526L65.606 96.5468L67.06 97.92ZM68.95 37.46C74.4927 37.46 78.7763 39.0161 81.9975 41.9733L84.7025 39.0267C80.6037 35.2639 75.2873 33.46 68.95 33.46V37.46ZM81.9975 41.9733C85.1871 44.9015 86.84 48.8365 86.84 54H90.84C90.84 47.8835 88.8329 42.8185 84.7025 39.0267L81.9975 41.9733ZM86.84 54C86.84 59.8678 85.0451 63.8854 81.7554 66.4665L84.2246 69.6135C88.7349 66.0746 90.84 60.7322 90.84 54H86.84ZM81.7706 66.4548C78.3256 69.1048 73.5234 70.54 67.15 70.54V74.54C74.0966 74.54 79.8544 72.9752 84.2094 69.6252L81.7706 66.4548ZM65.151 72.4769L64.881 81.0269L68.879 81.1531L69.149 72.6031L65.151 72.4769ZM66.88 79.09H59.77V83.09H66.88V79.09ZM61.7694 81.0394L61.4094 66.8194L57.4106 66.9206L57.7706 81.1406L61.7694 81.0394ZM59.41 68.87H62.02V64.87H59.41V68.87ZM62.02 68.87C68.1228 68.87 73.1459 67.9518 76.9144 65.933L75.0256 62.407C72.0741 63.9882 67.7972 64.87 62.02 64.87V68.87ZM76.9144 65.933C81.1272 63.6761 83.01 59.4544 83.01 54H79.01C79.01 58.5056 77.5328 61.0639 75.0256 62.407L76.9144 65.933ZM83.01 54C83.01 49.9732 81.7859 46.5649 79.1642 44.016L76.3758 46.884C78.0741 48.5351 79.01 50.8268 79.01 54H83.01ZM79.1642 44.016C76.5535 41.4779 73.1019 40.3 69.04 40.3V44.3C72.2981 44.3 74.6665 45.2221 76.3758 46.884L79.1642 44.016ZM69.04 40.3C64.9441 40.3 61.4656 41.4326 58.8468 43.906L61.5932 46.814C63.2944 45.2074 65.6959 44.3 69.04 44.3V40.3ZM58.848 43.9048C56.2662 46.3391 55.07 49.6414 55.07 53.55H59.07C59.07 50.4986 59.9738 48.3409 61.592 46.8152L58.848 43.9048ZM57.07 51.55H49.33V55.55H57.07V51.55ZM51.33 53.55C51.33 50.2595 52.067 47.4757 53.475 45.129L50.045 43.071C48.213 46.1243 47.33 49.6405 47.33 53.55H51.33ZM53.4848 45.1124C54.9055 42.692 56.8975 40.8239 59.5089 39.4915L57.6911 35.9285C54.4226 37.5961 51.8545 39.988 50.0352 43.0876L53.4848 45.1124ZM59.4944 39.4988C62.1748 38.1587 65.31 37.46 68.95 37.46V33.46C64.79 33.46 61.0252 34.2613 57.7056 35.9211L59.4944 39.4988ZM63.28 97.54C62.2377 97.54 61.4302 97.2018 60.7342 96.5058L57.9058 99.3342C59.3698 100.798 61.2023 101.54 63.28 101.54V97.54ZM60.7342 96.5058C60.0382 95.8098 59.7 95.0023 59.7 93.96H55.7C55.7 96.0377 56.4418 97.8702 57.9058 99.3342L60.7342 96.5058ZM59.7 93.96C59.7 92.9177 60.0382 92.1102 60.7342 91.4142L57.9058 88.5858C56.4418 90.0498 55.7 91.8823 55.7 93.96H59.7ZM60.7342 91.4142C61.4302 90.7182 62.2377 90.38 63.28 90.38V86.38C61.2023 86.38 59.3698 87.1218 57.9058 88.5858L60.7342 91.4142ZM63.28 90.38C64.2358 90.38 64.9679 90.6977 65.606 91.3732L68.514 88.6268C67.1121 87.1423 65.3242 86.38 63.28 86.38V90.38ZM65.6458 91.4142C66.3418 92.1102 66.68 92.9177 66.68 93.96H70.68C70.68 91.8823 69.9382 90.0498 68.4742 88.5858L65.6458 91.4142ZM66.68 93.96C66.68 95.0023 66.3418 95.8098 65.6458 96.5058L68.4742 99.3342C69.9382 97.8702 70.68 96.0377 70.68 93.96H66.68ZM65.606 96.5468C64.9679 97.2223 64.2358 97.54 63.28 97.54V101.54C65.3242 101.54 67.1121 100.778 68.514 99.2932L65.606 96.5468Z" fill="#FCFCFC"/>
</svg>
