<svg width="118" height="121" viewBox="0 0 118 121" fill="none" xmlns="http://www.w3.org/2000/svg">
<path d="M1.08863 54.8128C1.23572 62.7539 3.36737 70.5385 7.30998 77.5323C11.9866 85.9142 19.0502 92.8867 27.7095 97.6688C36.3689 102.451 46.282 104.854 56.3385 104.608C64.7491 104.421 73.006 102.36 80.4367 98.5936L117 109.124L104.163 75.1319C107.804 67.9502 109.602 60.0683 109.412 52.1282C109.206 42.6333 106.204 33.3963 100.743 25.4518C95.2812 17.5073 87.5761 11.1692 78.4902 7.14728C70.9072 3.75327 62.5713 2.10365 54.1616 2.33278L50.9757 2.41174C37.709 3.43271 25.2773 9.03647 16.0607 18.1501C6.84415 27.2637 1.49041 39.2467 1.0246 51.8047L1.08863 54.8128Z" fill="#09389C" stroke="#09389C" stroke-width="2" stroke-linecap="round" stroke-linejoin="round"/>
<path d="M55.32 32.816C59.544 32.816 62.9573 34.0107 65.56 36.4C68.1627 38.7893 69.464 41.9893 69.464 46C69.464 50.48 68.0773 53.808 65.304 55.984C62.5307 58.1173 58.776 59.184 54.04 59.184L53.848 65.264H48.792L48.536 55.152H50.392C54.616 55.152 57.9227 54.512 60.312 53.232C62.7013 51.952 63.896 49.5413 63.896 46C63.896 43.44 63.128 41.4133 61.592 39.92C60.056 38.4267 57.9867 37.68 55.384 37.68C52.7387 37.68 50.648 38.4053 49.112 39.856C47.6187 41.264 46.872 43.2053 46.872 45.68H41.368C41.368 43.12 41.944 40.88 43.096 38.96C44.248 36.9973 45.8693 35.4827 47.96 34.416C50.0933 33.3493 52.5467 32.816 55.32 32.816ZM51.288 78.384C50.1787 78.384 49.24 78 48.472 77.232C47.704 76.464 47.32 75.5253 47.32 74.416C47.32 73.3067 47.704 72.368 48.472 71.6C49.24 70.832 50.1787 70.448 51.288 70.448C52.3547 70.448 53.2507 70.832 53.976 71.6C54.744 72.368 55.128 73.3067 55.128 74.416C55.128 75.5253 54.744 76.464 53.976 77.232C53.2507 78 52.3547 78.384 51.288 78.384Z" fill="#FCFCFC"/>
<path d="M65.56 36.4L66.2363 35.6633L66.2363 35.6633L65.56 36.4ZM65.304 55.984L65.9137 56.7767L65.9213 56.7707L65.304 55.984ZM54.04 59.184V58.184H53.0711L53.0405 59.1524L54.04 59.184ZM53.848 65.264V66.264H54.8169L54.8475 65.2956L53.848 65.264ZM48.792 65.264L47.7923 65.2893L47.817 66.264H48.792V65.264ZM48.536 55.152V54.152H47.5104L47.5363 55.1773L48.536 55.152ZM60.312 53.232L59.8398 52.3505L59.8398 52.3505L60.312 53.232ZM49.112 39.856L49.798 40.5836L49.7986 40.583L49.112 39.856ZM46.872 45.68V46.68H47.872V45.68H46.872ZM41.368 45.68H40.368V46.68H41.368V45.68ZM43.096 38.96L43.9535 39.4745L43.9584 39.4662L43.096 38.96ZM47.96 34.416L47.5128 33.5215L47.5055 33.5252L47.96 34.416ZM48.472 77.232L47.7649 77.9391L47.7649 77.9391L48.472 77.232ZM48.472 71.6L47.7649 70.8929L47.7649 70.8929L48.472 71.6ZM53.976 71.6L53.249 72.2866L53.2588 72.297L53.2689 72.3071L53.976 71.6ZM53.976 77.232L53.2689 76.5249L53.2588 76.535L53.249 76.5454L53.976 77.232ZM55.32 33.816C59.3454 33.816 62.5005 34.9487 64.8837 37.1367L66.2363 35.6633C63.4142 33.0726 59.7426 31.816 55.32 31.816V33.816ZM64.8837 37.1367C67.2512 39.3101 68.464 42.2276 68.464 46H70.464C70.464 41.7511 69.0741 38.2686 66.2363 35.6633L64.8837 37.1367ZM68.464 46C68.464 50.2639 67.1549 53.2607 64.6867 55.1973L65.9213 56.7707C68.9998 54.3553 70.464 50.6961 70.464 46H68.464ZM64.6943 55.1914C62.1485 57.1497 58.6327 58.184 54.04 58.184V60.184C58.9193 60.184 62.9129 59.085 65.9137 56.7766L64.6943 55.1914ZM53.0405 59.1524L52.8485 65.2324L54.8475 65.2956L55.0395 59.2156L53.0405 59.1524ZM53.848 64.264H48.792V66.264H53.848V64.264ZM49.7917 65.2387L49.5357 55.1267L47.5363 55.1773L47.7923 65.2893L49.7917 65.2387ZM48.536 56.152H50.392V54.152H48.536V56.152ZM50.392 56.152C54.6974 56.152 58.1906 55.5029 60.7842 54.1135L59.8398 52.3505C57.6547 53.5211 54.5346 54.152 50.392 54.152V56.152ZM60.7842 54.1135C63.5999 52.6051 64.896 49.7786 64.896 46H62.896C62.896 49.3041 61.8027 51.2989 59.8398 52.3505L60.7842 54.1135ZM64.896 46C64.896 43.2266 64.0559 40.9208 62.2891 39.203L60.8949 40.637C62.2001 41.9059 62.896 43.6534 62.896 46H64.896ZM62.2891 39.203C60.5278 37.4906 58.1876 36.68 55.384 36.68V38.68C57.7857 38.68 59.5842 39.3627 60.8949 40.637L62.2891 39.203ZM55.384 36.68C52.5507 36.68 50.1908 37.4617 48.4254 39.129L49.7986 40.583C51.1052 39.349 52.9266 38.68 55.384 38.68V36.68ZM48.426 39.1284C46.6917 40.7635 45.872 42.991 45.872 45.68H47.872C47.872 43.4196 48.5456 41.7644 49.798 40.5836L48.426 39.1284ZM46.872 44.68H41.368V46.68H46.872V44.68ZM42.368 45.68C42.368 43.2748 42.9075 41.2178 43.9535 39.4745L42.2385 38.4455C40.9805 40.5422 40.368 42.9652 40.368 45.68H42.368ZM43.9584 39.4662C45.0107 37.6733 46.4881 36.2896 48.4145 35.3068L47.5055 33.5252C45.2506 34.6757 43.4853 36.3213 42.2336 38.4538L43.9584 39.4662ZM48.4072 35.3104C50.3807 34.3237 52.6767 33.816 55.32 33.816V31.816C52.4167 31.816 49.8059 32.375 47.5128 33.5216L48.4072 35.3104ZM51.288 77.384C50.4375 77.384 49.7551 77.1009 49.1791 76.5249L47.7649 77.9391C48.7249 78.8991 49.9198 79.384 51.288 79.384V77.384ZM49.1791 76.5249C48.6031 75.9489 48.32 75.2665 48.32 74.416H46.32C46.32 75.7842 46.8049 76.9791 47.7649 77.9391L49.1791 76.5249ZM48.32 74.416C48.32 73.5655 48.6031 72.8831 49.1791 72.3071L47.7649 70.8929C46.8049 71.8529 46.32 73.0478 46.32 74.416H48.32ZM49.1791 72.3071C49.7551 71.7311 50.4375 71.448 51.288 71.448V69.448C49.9198 69.448 48.7249 69.9329 47.7649 70.8929L49.1791 72.3071ZM51.288 71.448C52.0826 71.448 52.7146 71.7208 53.249 72.2866L54.703 70.9134C53.7867 69.9432 52.6268 69.448 51.288 69.448V71.448ZM53.2689 72.3071C53.8449 72.8831 54.128 73.5655 54.128 74.416H56.128C56.128 73.0478 55.6431 71.8529 54.6831 70.8929L53.2689 72.3071ZM54.128 74.416C54.128 75.2665 53.8449 75.9489 53.2689 76.5249L54.6831 77.9391C55.6431 76.9791 56.128 75.7842 56.128 74.416H54.128ZM53.249 76.5454C52.7146 77.1112 52.0826 77.384 51.288 77.384V79.384C52.6268 79.384 53.7867 78.8888 54.703 77.9186L53.249 76.5454Z" fill="#FCFCFC"/>
</svg>
