<svg width="102" height="113" viewBox="0 0 102 113" fill="none" xmlns="http://www.w3.org/2000/svg">
<path d="M100.997 84.1048V100.815C101.003 102.366 100.716 103.902 100.155 105.323C99.5938 106.744 98.771 108.02 97.7392 109.069C96.7073 110.117 95.4891 110.916 94.1626 111.413C92.8361 111.91 91.4305 112.094 90.0359 111.955C74.564 110.092 59.7022 104.236 46.6445 94.8549C34.4961 86.3031 24.1963 74.893 16.4767 61.435C7.9793 46.904 2.69121 30.3599 1.04081 13.1431C0.915164 11.6028 1.08041 10.0504 1.52601 8.58478C1.97162 7.11911 2.68783 5.77229 3.62904 4.63006C4.57025 3.48784 5.71584 2.57523 6.99288 1.95035C8.26991 1.32546 9.65041 1.002 11.0465 1.00054H26.1304C28.5705 0.973935 30.9361 1.93117 32.7862 3.69381C34.6364 5.45646 35.8448 7.90425 36.1863 10.5809C36.823 15.9285 38.0037 21.1791 39.7059 26.2326C40.3824 28.2262 40.5288 30.3929 40.1278 32.4759C39.7268 34.5589 38.7952 36.4709 37.4433 37.9853L31.0578 45.0592C38.2154 59.0039 48.6379 70.5499 61.2256 78.4791L67.6112 71.4052C68.9782 69.9077 70.7041 68.8756 72.5844 68.4314C74.4647 67.9871 76.4205 68.1493 78.2202 68.8987C82.7819 70.7845 87.5216 72.0925 92.3488 72.7977C94.7912 73.1795 97.0218 74.5423 98.6163 76.6271C100.211 78.7119 101.058 81.3732 100.997 84.1048Z" fill="#09389C" stroke="#09389C" stroke-width="2" stroke-linecap="round" stroke-linejoin="round"/>
</svg>
