<svg width="79" height="87" viewBox="0 0 79 87" fill="none" xmlns="http://www.w3.org/2000/svg">
<path d="M77.9976 64.6388V77.4348C78.002 78.6227 77.7811 79.7985 77.3492 80.8869C76.9172 81.9753 76.2837 82.9523 75.4892 83.7554C74.6946 84.5584 73.7566 85.1698 72.7352 85.5504C71.7138 85.931 70.6315 86.0723 69.5577 85.9654C57.6443 84.5392 46.2007 80.0543 36.1463 72.8709C26.792 66.3222 18.8612 57.5847 12.917 47.279C6.37406 36.1517 2.30223 23.4828 1.03142 10.2988C0.934676 9.11929 1.06191 7.93052 1.40503 6.80816C1.74815 5.68581 2.29963 4.65446 3.02436 3.77978C3.74909 2.9051 4.6312 2.20626 5.61452 1.72774C6.59783 1.24923 7.66082 1.00153 8.73579 1.00041H20.3504C22.2293 0.980041 24.0508 1.71306 25.4754 3.06283C26.9 4.4126 27.8305 6.28704 28.0935 8.33675C28.5837 12.4317 29.4928 16.4525 30.8036 20.3223C31.3244 21.8489 31.4372 23.5081 31.1284 25.1032C30.8196 26.6982 30.1023 28.1624 29.0614 29.3221L24.1445 34.739C29.6559 45.4174 37.6812 54.259 47.3737 60.3309L52.2906 54.9139C53.3432 53.7671 54.6722 52.9768 56.12 52.6366C57.5678 52.2965 59.0738 52.4207 60.4595 52.9945C63.9721 54.4386 67.6216 55.4402 71.3386 55.9803C73.2192 56.2726 74.9368 57.3162 76.1646 58.9126C77.3924 60.5091 78.0447 62.547 77.9976 64.6388Z" fill="#09389C" stroke="#09389C" stroke-width="2" stroke-linecap="round" stroke-linejoin="round"/>
</svg>
