<svg width="140" height="140" viewBox="0 0 140 140" fill="none" xmlns="http://www.w3.org/2000/svg">
<circle cx="70" cy="70" r="65" fill="#FFCA63" stroke="#FFB525" stroke-width="10"/>
<path d="M57.8756 28.0441C63.2642 18.7107 76.7357 18.7107 82.1243 28.0441L115.447 85.7611C120.836 95.0944 114.1 106.761 103.323 106.761H36.677C25.8998 106.761 19.1641 95.0944 24.5527 85.761L57.8756 28.0441Z" fill="#9B1C3F"/>
<circle cx="70" cy="87.9643" r="7.05632" fill="#FCFCFC"/>
<path d="M63.2404 43.5092C62.8521 39.5398 65.9711 36.1007 69.9594 36.1007V36.1007C73.9768 36.1007 77.1052 39.5876 76.6711 43.5814L73.4365 73.339C73.2346 75.1966 71.6661 76.6039 69.7976 76.6039V76.6039C67.9141 76.6039 66.3381 75.1745 66.1547 73.2999L63.2404 43.5092Z" fill="#FCFCFC"/>
</svg>
