<svg width="140" height="140" viewBox="0 0 140 140" fill="none" xmlns="http://www.w3.org/2000/svg">
<circle cx="70" cy="70" r="70" fill="#AAE1D7"/>
<path d="M48.6721 78.9565C54.2992 78.9565 59.9264 78.9389 65.5535 78.9598C80.9843 79.0169 96.415 79.0997 111.846 79.1377C112.933 79.1406 113.6 79.2857 113.497 80.6387C112.929 88.1544 111.274 95.2567 106.496 101.248C103.902 104.5 100.711 106.824 96.8085 108.013C95.4599 108.423 94.7727 109.07 94.9933 110.579C95.0724 111.121 95.0099 111.686 95.0043 112.241C94.9855 114.136 94.5405 114.609 92.7621 114.637C90.9226 114.666 90.5604 114.315 90.4022 112.349C90.183 109.621 90.1834 109.658 87.5101 109.69C78.2465 109.8 68.9826 109.924 59.7181 109.945C57.2102 109.951 54.6954 109.673 52.1954 109.408C50.992 109.281 50.4652 109.622 50.582 110.902C50.627 111.397 50.6095 111.901 50.5769 112.399C50.4532 114.294 49.955 114.719 47.9936 114.637C46.405 114.571 45.9256 114.012 45.9063 112.206C45.8709 108.846 45.8502 108.897 42.8059 107.57C35.9891 104.601 31.7217 99.1473 29.5737 92.0293C28.4714 88.3766 28.1506 84.4689 27.5135 80.6696C27.3131 79.4741 27.6647 78.927 29.0579 78.9469C35.5948 79.0388 42.1339 78.9879 48.6721 78.9879C48.6721 78.9774 48.6721 78.9674 48.6721 78.9569V78.9565Z" fill="#09389C"/>
<path d="M70.0974 75.2846C56.2962 75.2846 42.4946 75.286 28.6934 75.2799C27.9343 75.2799 27.163 75.287 26.4188 75.1612C24.9402 74.9115 23.7645 73.5435 23.8008 72.231C23.8395 70.829 25.1396 69.5029 26.677 69.3583C27.3779 69.2923 28.0885 69.3182 28.7945 69.3182C53.1913 69.3168 77.588 69.3177 101.985 69.3177C103.561 69.3177 104.35 68.5348 104.352 66.9689C104.353 58.6239 104.419 50.2775 104.308 41.934C104.277 39.6077 103.874 37.2527 103.356 34.9778C102.929 33.1052 101.03 32.0749 99.1882 32.3203C97.5307 32.5413 97.0479 33.3346 97.6313 34.8972C98.3121 36.7194 98.7017 38.5468 98.0931 40.4952C97.5684 42.1766 96.5651 42.9996 95.0799 42.1606C91.5033 40.14 88.0153 37.9287 84.6666 35.5426C83.2238 34.5142 83.3893 32.7269 84.9564 31.8794C86.5753 31.0036 88.4855 30.6842 90.2582 30.0902C90.9852 29.8466 91.8845 29.7142 92.3659 29.204C95.5525 25.8286 99.3043 25.0198 103.503 26.7058C107.705 28.3928 109.953 31.7979 110.081 36.2441C110.378 46.5483 110.431 56.8601 110.499 67.1696C110.51 68.7576 110.841 69.5839 112.567 69.3375C113.036 69.2706 113.578 69.3008 114.01 69.4765C115.298 70.0008 116.36 70.9769 116.245 72.394C116.13 73.8256 115.112 74.8818 113.612 75.1555C112.818 75.3002 111.988 75.279 111.175 75.2794C97.4827 75.286 83.79 75.2842 70.0974 75.2837V75.2846Z" fill="#09389C"/>
<path d="M79.8924 39.7519L78.0345 41.3451" stroke="#09389C" stroke-width="6" stroke-linecap="round"/>
<path d="M73.4093 48.6548L71.9969 50.6536" stroke="#09389C" stroke-width="6" stroke-linecap="round"/>
<path d="M86.601 43.8211L85.3992 45.9532" stroke="#09389C" stroke-width="6" stroke-linecap="round"/>
<path d="M81.8526 52.9269L81.0824 55.2499" stroke="#09389C" stroke-width="6" stroke-linecap="round"/>
<path d="M93.1624 47.2631L92.5058 49.6207" stroke="#09389C" stroke-width="6" stroke-linecap="round"/>
<path d="M91.719 56.9109L91.6057 59.3555" stroke="#09389C" stroke-width="6" stroke-linecap="round"/>
</svg>
