<svg width="115" height="115" viewBox="0 0 115 115" fill="none" xmlns="http://www.w3.org/2000/svg">
<circle cx="57.5" cy="57.5" r="53.5" fill="#FFCA63" stroke="#FFB525" stroke-width="8"/>
<path d="M45.3756 26.7861C50.7642 17.4528 64.2357 17.4528 69.6243 26.7861L92.6666 66.6965C98.0552 76.0299 91.3195 87.6965 80.5423 87.6965H34.4577C23.6805 87.6965 16.9448 76.0298 22.3334 66.6965L45.3756 26.7861Z" fill="#9B1C3F"/>
<circle cx="57.5" cy="72.2565" r="5.79627" fill="#FCFCFC"/>
<path d="M51.9475 35.7396C51.6285 32.479 54.1906 29.6541 57.4667 29.6541V29.6541C60.7667 29.6541 63.3364 32.5183 62.9799 35.7989L60.3229 60.2427C60.1571 61.7685 58.8686 62.9245 57.3338 62.9245V62.9245C55.7866 62.9245 54.492 61.7504 54.3414 60.2105L51.9475 35.7396Z" fill="#FCFCFC"/>
</svg>
