<svg width="377" height="340" viewBox="0 0 377 340" fill="none" xmlns="http://www.w3.org/2000/svg">
<path d="M242 188.24C281.13 182.84 259.55 151.4 259.55 151.4C269 125.76 247.41 121.87 247.41 121.87C242.01 84.09 210.98 101.63 210.98 101.63C188.04 75.99 166.45 101.63 166.45 101.63C132.72 88.14 130.02 121.87 130.02 121.87C107.08 124.57 117.88 151.56 117.88 151.56C117.88 151.56 93.02 183.24 131.02 190.24" stroke="white" stroke-width="6" stroke-miterlimit="10"/>
<path d="M132.71 167.6C132.71 167.6 131.36 159.5 139.46 159.5H233.6C233.6 159.5 243.36 156.8 242.01 177.04C242.01 177.04 247.45 245.78 187.38 249.19C187.38 249.19 128.66 255.3 132.71 167.59V167.6Z" stroke="white" stroke-width="5" stroke-miterlimit="10"/>
<path d="M168.26 210.1C175.65 210.1 181.64 205.224 181.64 199.21C181.64 193.196 175.65 188.32 168.26 188.32C160.87 188.32 154.88 193.196 154.88 199.21C154.88 205.224 160.87 210.1 168.26 210.1Z" stroke="white" stroke-width="5" stroke-miterlimit="10"/>
<path d="M206.63 210.1C214.02 210.1 220.01 205.224 220.01 199.21C220.01 193.196 214.02 188.32 206.63 188.32C199.24 188.32 193.25 193.196 193.25 199.21C193.25 205.224 199.24 210.1 206.63 210.1Z" stroke="white" stroke-width="5" stroke-miterlimit="10"/>
<path d="M176.5 190.51C176.5 190.51 186.52 182.48 196.91 190.51" stroke="white" stroke-width="5" stroke-miterlimit="10"/>
<path d="M246.95 190.25C246.25 190.29 243.16 190 242.5 190.11C242.47 197.06 240.5 205.11 239.5 212.61C246.5 212.61 247.48 212.44 248.07 212.39C256.5 211.67 256.5 206.99 256.5 198.55C256.5 190.63 249.5 190.11 246.95 190.25Z" stroke="white" stroke-width="5" stroke-miterlimit="10"/>
<path d="M127.05 190.51C127.75 190.55 130.84 190.24 131.5 190.36C131.53 197.77 133.5 206.36 134.5 214.36C127.5 214.36 126.52 214.18 125.93 214.12C117.5 213.36 117.5 208.36 117.5 199.36C117.5 190.91 124.5 190.36 127.05 190.51Z" stroke="white" stroke-width="5" stroke-miterlimit="10"/>
</svg>
