<svg width="160" height="33" viewBox="0 0 160 33" fill="none" xmlns="http://www.w3.org/2000/svg">
<path d="M10.4547 32.28C8.50802 32.28 6.74802 31.9467 5.17469 31.28C3.62802 30.6133 2.40135 29.6533 1.49469 28.4C0.588021 27.1467 0.121354 25.6667 0.0946876 23.96H6.09469C6.17469 25.1067 6.57469 26.0133 7.29469 26.68C8.04135 27.3467 9.05469 27.68 10.3347 27.68C11.6414 27.68 12.668 27.3733 13.4147 26.76C14.1614 26.12 14.5347 25.2933 14.5347 24.28C14.5347 23.4533 14.2814 22.7733 13.7747 22.24C13.268 21.7067 12.628 21.2933 11.8547 21C11.108 20.68 10.068 20.3333 8.73469 19.96C6.92135 19.4267 5.44135 18.9067 4.29469 18.4C3.17469 17.8667 2.20135 17.08 1.37469 16.04C0.574688 14.9733 0.174688 13.56 0.174688 11.8C0.174688 10.1467 0.588021 8.70667 1.41469 7.48C2.24135 6.25333 3.40135 5.32 4.89469 4.68C6.38802 4.01333 8.09469 3.68 10.0147 3.68C12.8947 3.68 15.228 4.38667 17.0147 5.8C18.828 7.18667 19.828 9.13333 20.0147 11.64H13.8547C13.8014 10.68 13.388 9.89333 12.6147 9.28C11.868 8.64 10.868 8.32 9.61469 8.32C8.52135 8.32 7.64135 8.6 6.97469 9.16C6.33469 9.72 6.01469 10.5333 6.01469 11.6C6.01469 12.3467 6.25469 12.9733 6.73469 13.48C7.24135 13.96 7.85469 14.36 8.57469 14.68C9.32135 14.9733 10.3614 15.32 11.6947 15.72C13.508 16.2533 14.988 16.7867 16.1347 17.32C17.2814 17.8533 18.268 18.6533 19.0947 19.72C19.9214 20.7867 20.3347 22.1867 20.3347 23.92C20.3347 25.4133 19.948 26.8 19.1747 28.08C18.4014 29.36 17.268 30.3867 15.7747 31.16C14.2814 31.9067 12.508 32.28 10.4547 32.28ZM45.7897 20.44C45.7897 21.24 45.7364 21.96 45.6297 22.6H29.4297C29.563 24.2 30.123 25.4533 31.1097 26.36C32.0964 27.2667 33.3097 27.72 34.7497 27.72C36.8297 27.72 38.3097 26.8267 39.1897 25.04H45.2297C44.5897 27.1733 43.363 28.9333 41.5497 30.32C39.7364 31.68 37.5097 32.36 34.8697 32.36C32.7364 32.36 30.8164 31.8933 29.1097 30.96C27.4297 30 26.1097 28.6533 25.1497 26.92C24.2164 25.1867 23.7497 23.1867 23.7497 20.92C23.7497 18.6267 24.2164 16.6133 25.1497 14.88C26.083 13.1467 27.3897 11.8133 29.0697 10.88C30.7497 9.94667 32.683 9.48 34.8697 9.48C36.9764 9.48 38.8564 9.93333 40.5097 10.84C42.1897 11.7467 43.483 13.04 44.3897 14.72C45.323 16.3733 45.7897 18.28 45.7897 20.44ZM39.9897 18.84C39.963 17.4 39.443 16.2533 38.4297 15.4C37.4164 14.52 36.1764 14.08 34.7097 14.08C33.323 14.08 32.1497 14.5067 31.1897 15.36C30.2564 16.1867 29.683 17.3467 29.4697 18.84H39.9897ZM62.1572 9.52C64.7972 9.52 66.9305 10.36 68.5572 12.04C70.1839 13.6933 70.9972 16.0133 70.9972 19V32H65.3972V19.76C65.3972 18 64.9572 16.6533 64.0772 15.72C63.1972 14.76 61.9972 14.28 60.4772 14.28C58.9305 14.28 57.7039 14.76 56.7972 15.72C55.9172 16.6533 55.4772 18 55.4772 19.76V32H49.8772V9.84H55.4772V12.6C56.2239 11.64 57.1705 10.8933 58.3172 10.36C59.4905 9.8 60.7705 9.52 62.1572 9.52ZM84.8025 32.36C82.9892 32.36 81.3625 32.04 79.9225 31.4C78.4825 30.7333 77.3358 29.84 76.4825 28.72C75.6558 27.6 75.2025 26.36 75.1225 25H80.7625C80.8692 25.8533 81.2825 26.56 82.0025 27.12C82.7492 27.68 83.6692 27.96 84.7625 27.96C85.8292 27.96 86.6558 27.7467 87.2425 27.32C87.8558 26.8933 88.1625 26.3467 88.1625 25.68C88.1625 24.96 87.7892 24.4267 87.0425 24.08C86.3225 23.7067 85.1625 23.3067 83.5625 22.88C81.9092 22.48 80.5492 22.0667 79.4825 21.64C78.4425 21.2133 77.5358 20.56 76.7625 19.68C76.0158 18.8 75.6425 17.6133 75.6425 16.12C75.6425 14.8933 75.9892 13.7733 76.6825 12.76C77.4025 11.7467 78.4158 10.9467 79.7225 10.36C81.0558 9.77333 82.6158 9.48 84.4025 9.48C87.0425 9.48 89.1492 10.1467 90.7225 11.48C92.2958 12.7867 93.1625 14.56 93.3225 16.8H87.9625C87.8825 15.92 87.5092 15.2267 86.8425 14.72C86.2025 14.1867 85.3358 13.92 84.2425 13.92C83.2292 13.92 82.4425 14.1067 81.8825 14.48C81.3492 14.8533 81.0825 15.3733 81.0825 16.04C81.0825 16.7867 81.4558 17.36 82.2025 17.76C82.9492 18.1333 84.1092 18.52 85.6825 18.92C87.2825 19.32 88.6025 19.7333 89.6425 20.16C90.6825 20.5867 91.5758 21.2533 92.3225 22.16C93.0958 23.04 93.4958 24.2133 93.5225 25.68C93.5225 26.96 93.1625 28.1067 92.4425 29.12C91.7492 30.1333 90.7358 30.9333 89.4025 31.52C88.0958 32.08 86.5625 32.36 84.8025 32.36ZM96.6794 20.84C96.6794 18.6 97.1194 16.6133 97.9994 14.88C98.906 13.1467 100.119 11.8133 101.639 10.88C103.186 9.94667 104.906 9.48 106.799 9.48C108.453 9.48 109.893 9.81333 111.119 10.48C112.373 11.1467 113.373 11.9867 114.119 13V9.84H119.759V32H114.119V28.76C113.399 29.8 112.399 30.6667 111.119 31.36C109.866 32.0267 108.413 32.36 106.759 32.36C104.893 32.36 103.186 31.88 101.639 30.92C100.119 29.96 98.906 28.6133 97.9994 26.88C97.1194 25.12 96.6794 23.1067 96.6794 20.84ZM114.119 20.92C114.119 19.56 113.853 18.4 113.319 17.44C112.786 16.4533 112.066 15.7067 111.159 15.2C110.253 14.6667 109.279 14.4 108.239 14.4C107.199 14.4 106.239 14.6533 105.359 15.16C104.479 15.6667 103.759 16.4133 103.199 17.4C102.666 18.36 102.399 19.5067 102.399 20.84C102.399 22.1733 102.666 23.3467 103.199 24.36C103.759 25.3467 104.479 26.1067 105.359 26.64C106.266 27.1733 107.226 27.44 108.239 27.44C109.279 27.44 110.253 27.1867 111.159 26.68C112.066 26.1467 112.786 25.4 113.319 24.44C113.853 23.4533 114.119 22.28 114.119 20.92ZM135.389 14.44H131.509V32H125.829V14.44H123.309V9.84H125.829V8.72C125.829 6 126.602 4 128.149 2.72C129.695 1.44 132.029 0.839999 135.149 0.92V5.64C133.789 5.61333 132.842 5.84 132.309 6.32C131.775 6.8 131.509 7.66667 131.509 8.92V9.84H135.389V14.44ZM159.618 20.44C159.618 21.24 159.564 21.96 159.458 22.6H143.258C143.391 24.2 143.951 25.4533 144.938 26.36C145.924 27.2667 147.138 27.72 148.578 27.72C150.658 27.72 152.138 26.8267 153.018 25.04H159.058C158.418 27.1733 157.191 28.9333 155.378 30.32C153.564 31.68 151.338 32.36 148.698 32.36C146.564 32.36 144.644 31.8933 142.938 30.96C141.258 30 139.938 28.6533 138.978 26.92C138.044 25.1867 137.578 23.1867 137.578 20.92C137.578 18.6267 138.044 16.6133 138.978 14.88C139.911 13.1467 141.218 11.8133 142.898 10.88C144.578 9.94667 146.511 9.48 148.698 9.48C150.804 9.48 152.684 9.93333 154.338 10.84C156.018 11.7467 157.311 13.04 158.218 14.72C159.151 16.3733 159.618 18.28 159.618 20.44ZM153.818 18.84C153.791 17.4 153.271 16.2533 152.258 15.4C151.244 14.52 150.004 14.08 148.538 14.08C147.151 14.08 145.978 14.5067 145.018 15.36C144.084 16.1867 143.511 17.3467 143.298 18.84H153.818Z" fill="#FCFCFC"/>
<path d="M5.17469 31.28L5.07573 31.5096L5.07715 31.5102L5.17469 31.28ZM1.49469 28.4L1.29213 28.5465L1.49469 28.4ZM0.0946877 23.96V23.71H-0.159249L-0.155282 23.9639L0.0946877 23.96ZM6.09469 23.96L6.34408 23.9426L6.32785 23.71H6.09469V23.96ZM7.29469 26.68L7.12481 26.8635L7.12818 26.8665L7.29469 26.68ZM13.4147 26.76L13.5734 26.9532L13.5774 26.9498L13.4147 26.76ZM13.7747 22.24L13.5934 22.4122L13.7747 22.24ZM11.8547 21L11.7561 21.23L11.766 21.2337L11.8547 21ZM8.73469 19.96L8.66414 20.1999L8.66728 20.2007L8.73469 19.96ZM4.29469 18.4L4.18716 18.6258L4.19365 18.6287L4.29469 18.4ZM1.37469 16.04L1.17461 16.1901L1.17898 16.1956L1.37469 16.04ZM1.41469 7.48L1.622 7.61971L1.41469 7.48ZM4.89469 4.68L4.99318 4.90981L4.9966 4.90828L4.89469 4.68ZM17.0147 5.8L16.8596 5.9961L16.8628 5.99859L17.0147 5.8ZM20.0147 11.64V11.89H20.284L20.264 11.6214L20.0147 11.64ZM13.8547 11.64L13.6051 11.6539L13.6182 11.89H13.8547V11.64ZM12.6147 9.28L12.4519 9.46995L12.4593 9.47587L12.6147 9.28ZM6.97469 9.16L6.81386 8.96853L6.81006 8.97186L6.97469 9.16ZM6.73469 13.48L6.55293 13.6522L6.56275 13.6615L6.73469 13.48ZM8.57469 14.68L8.47306 14.9087L8.48327 14.9127L8.57469 14.68ZM11.6947 15.72L11.6229 15.9595L11.6241 15.9598L11.6947 15.72ZM19.0947 19.72L18.8971 19.8731L19.0947 19.72ZM19.1747 28.08L18.9607 27.9507L19.1747 28.08ZM15.7747 31.16L15.8865 31.3836L15.8897 31.382L15.7747 31.16ZM10.4547 32.03C8.53689 32.03 6.8107 31.7017 5.27222 31.0498L5.07715 31.5102C6.68535 32.1916 8.47915 32.53 10.4547 32.53V32.03ZM5.27364 31.0504C3.76457 30.4 2.57517 29.4671 1.69724 28.2535L1.29213 28.5465C2.22754 29.8396 3.49147 30.8267 5.07573 31.5096L5.27364 31.0504ZM1.69724 28.2535C0.823732 27.046 0.370609 25.617 0.344657 23.9561L-0.155282 23.9639C-0.127901 25.7163 0.352309 27.2474 1.29213 28.5465L1.69724 28.2535ZM0.0946877 24.21H6.09469V23.71H0.0946877V24.21ZM5.84529 23.9774C5.92891 25.1759 6.35027 26.1462 7.12484 26.8634L7.46454 26.4966C6.79911 25.8804 6.42047 25.0374 6.34408 23.9426L5.84529 23.9774ZM7.12818 26.8665C7.93231 27.5845 9.01091 27.93 10.3347 27.93V27.43C9.09846 27.43 8.1504 27.1089 7.46119 26.4935L7.12818 26.8665ZM10.3347 27.93C11.6789 27.93 12.7684 27.6144 13.5734 26.9532L13.256 26.5668C12.5676 27.1323 11.6039 27.43 10.3347 27.43V27.93ZM13.5774 26.9498C14.3814 26.2607 14.7847 25.3638 14.7847 24.28H14.2847C14.2847 25.2229 13.9413 25.9793 13.252 26.5702L13.5774 26.9498ZM14.7847 24.28C14.7847 23.3978 14.5123 22.6535 13.9559 22.0678L13.5934 22.4122C14.0504 22.8932 14.2847 23.5088 14.2847 24.28H14.7847ZM13.9559 22.0678C13.4204 21.5041 12.7474 21.0712 11.9434 20.7663L11.766 21.2337C12.5087 21.5154 13.1157 21.9093 13.5934 22.4122L13.9559 22.0678ZM11.9532 20.7702C11.1918 20.4439 10.1398 20.0938 8.8021 19.7193L8.66728 20.2007C9.99628 20.5729 11.0242 20.9161 11.7562 21.2298L11.9532 20.7702ZM8.80523 19.7202C6.99764 19.1885 5.52886 18.672 4.39573 18.1713L4.19365 18.6287C5.35385 19.1413 6.84507 19.6648 8.66415 20.1998L8.80523 19.7202ZM4.40217 18.1743C3.31894 17.6585 2.37509 16.8968 1.57039 15.8844L1.17898 16.1956C2.02762 17.2632 3.03043 18.0749 4.1872 18.6257L4.40217 18.1743ZM1.57469 15.89C0.816158 14.8786 0.424688 13.5232 0.424688 11.8H-0.0753124C-0.0753124 13.5968 0.333217 15.068 1.17469 16.19L1.57469 15.89ZM0.424688 11.8C0.424688 10.1904 0.826374 8.80033 1.622 7.61971L1.20737 7.34028C0.349668 8.613 -0.0753124 10.103 -0.0753124 11.8H0.424688ZM1.622 7.61971C2.41919 6.43679 3.53951 5.53278 4.99317 4.90978L4.79621 4.45021C3.2632 5.10721 2.06352 6.06987 1.20737 7.34028L1.622 7.61971ZM4.9966 4.90828C6.45277 4.25821 8.12376 3.93 10.0147 3.93V3.43C8.06561 3.43 6.32327 3.76846 4.79278 4.45171L4.9966 4.90828ZM10.0147 3.93C12.8535 3.93 15.1276 4.62602 16.8596 5.99607L17.1698 5.60393C15.3284 4.14731 12.9358 3.43 10.0147 3.43V3.93ZM16.8628 5.99859C18.6134 7.33723 19.5834 9.21501 19.7654 11.6586L20.264 11.6214C20.0726 9.05166 19.0427 7.0361 17.1666 5.60141L16.8628 5.99859ZM20.0147 11.39H13.8547V11.89H20.0147V11.39ZM14.1043 11.6261C14.0469 10.5926 13.5977 9.74052 12.77 9.08413L12.4593 9.47587C13.1784 10.0461 13.5558 10.7674 13.6051 11.6539L14.1043 11.6261ZM12.7774 9.09019C11.9741 8.40166 10.9109 8.07 9.61469 8.07V8.57C10.8251 8.57 11.7619 8.87834 12.452 9.46981L12.7774 9.09019ZM9.61469 8.07C8.478 8.07 7.53617 8.36186 6.81389 8.96857L7.13549 9.35143C7.74654 8.83814 8.56471 8.57 9.61469 8.57V8.07ZM6.81006 8.97186C6.10252 9.59095 5.76469 10.481 5.76469 11.6H6.26469C6.26469 10.5857 6.56686 9.84904 7.13931 9.34814L6.81006 8.97186ZM5.76469 11.6C5.76469 12.4057 6.02595 13.0954 6.5532 13.6519L6.91618 13.3081C6.48343 12.8513 6.26469 12.2876 6.26469 11.6H5.76469ZM6.56275 13.6615C7.09252 14.1634 7.7305 14.5784 8.47315 14.9085L8.67622 14.4515C7.97888 14.1416 7.39019 13.7566 6.90662 13.2985L6.56275 13.6615ZM8.48327 14.9127C9.23937 15.2097 10.2869 15.5587 11.6229 15.9595L11.7665 15.4805C10.4358 15.0813 9.40334 14.7369 8.6661 14.4473L8.48327 14.9127ZM11.6241 15.9598C13.4308 16.4912 14.8979 17.0205 16.0293 17.5467L16.2401 17.0933C15.0781 16.5529 13.5853 16.0155 11.7652 15.4802L11.6241 15.9598ZM16.0293 17.5467C17.1374 18.0621 18.0932 18.8358 18.8971 19.8731L19.2923 19.5669C18.4429 18.4708 17.4253 17.6446 16.2401 17.0933L16.0293 17.5467ZM18.8971 19.8731C19.6812 20.8849 20.0847 22.2262 20.0847 23.92H20.5847C20.5847 22.1471 20.1615 20.6885 19.2923 19.5669L18.8971 19.8731ZM20.0847 23.92C20.0847 25.3677 19.7105 26.7097 18.9607 27.9507L19.3887 28.2093C20.1855 26.8903 20.5847 25.459 20.5847 23.92H20.0847ZM18.9607 27.9507C18.2141 29.1865 17.1174 30.1832 15.6597 30.938L15.8897 31.382C17.4187 30.5902 18.5886 29.5335 19.3887 28.2093L18.9607 27.9507ZM15.6629 30.9364C14.2113 31.6622 12.478 32.03 10.4547 32.03V32.53C12.5381 32.53 14.3514 32.1512 15.8865 31.3836L15.6629 30.9364ZM45.6297 22.6V22.85H45.8415L45.8763 22.6411L45.6297 22.6ZM29.4297 22.6V22.35H29.158L29.1806 22.6208L29.4297 22.6ZM31.1097 26.36L30.9405 26.5441L31.1097 26.36ZM39.1897 25.04V24.79H39.0341L38.9654 24.9295L39.1897 25.04ZM45.2297 25.04L45.4691 25.1118L45.5657 24.79H45.2297V25.04ZM41.5497 30.32L41.6997 30.52L41.7015 30.5186L41.5497 30.32ZM29.1097 30.96L28.9856 31.1771L28.9897 31.1793L29.1097 30.96ZM25.1497 26.92L24.9296 27.0385L24.931 27.0411L25.1497 26.92ZM25.1497 14.88L24.9296 14.7615L25.1497 14.88ZM29.0697 10.88L29.1911 11.0985L29.0697 10.88ZM40.5097 10.84L40.3895 11.0592L40.391 11.06L40.5097 10.84ZM44.3897 14.72L44.1696 14.8388L44.172 14.8429L44.3897 14.72ZM39.9897 18.84V19.09H40.2444L40.2396 18.8354L39.9897 18.84ZM38.4297 15.4L38.2657 15.5888L38.2687 15.5912L38.4297 15.4ZM31.1897 15.36L31.3554 15.5471L31.3558 15.5469L31.1897 15.36ZM29.4697 18.84L29.2222 18.8046L29.1814 19.09H29.4697V18.84ZM45.5397 20.44C45.5397 21.2293 45.487 21.9352 45.3831 22.5589L45.8763 22.6411C45.9857 21.9848 46.0397 21.2507 46.0397 20.44H45.5397ZM45.6297 22.35H29.4297V22.85H45.6297V22.35ZM29.1806 22.6208C29.318 24.2702 29.8988 25.5868 30.9405 26.5441L31.2788 26.1759C30.3472 25.3199 29.808 24.1298 29.6788 22.5792L29.1806 22.6208ZM30.9405 26.5441C31.977 27.4965 33.2521 27.97 34.7497 27.97V27.47C33.3672 27.47 32.2158 27.0369 31.2788 26.1759L30.9405 26.5441ZM34.7497 27.97C35.8259 27.97 36.7626 27.7386 37.5489 27.264C38.3358 26.7891 38.9561 26.08 39.414 25.1505L38.9654 24.9295C38.5433 25.7866 37.9836 26.4176 37.2905 26.836C36.5967 27.2547 35.7534 27.47 34.7497 27.47V27.97ZM39.1897 25.29H45.2297V24.79H39.1897V25.29ZM44.9902 24.9682C44.3658 27.0497 43.1705 28.7659 41.3978 30.1214L41.7015 30.5186C43.5556 29.1008 44.8136 27.2969 45.4691 25.1118L44.9902 24.9682ZM41.3997 30.12C39.6365 31.4424 37.4648 32.11 34.8697 32.11V32.61C37.5545 32.61 39.8362 31.9176 41.6997 30.52L41.3997 30.12ZM34.8697 32.11C32.7741 32.11 30.896 31.652 29.2296 30.7407L28.9897 31.1793C30.7367 32.1347 32.6986 32.61 34.8697 32.61V32.11ZM29.2337 30.7429C27.5945 29.8062 26.3068 28.4932 25.3684 26.7989L24.931 27.0411C25.9126 28.8135 27.2649 30.1938 28.9857 31.1771L29.2337 30.7429ZM25.3698 26.8015C24.4589 25.1097 23.9997 23.1516 23.9997 20.92H23.4997C23.4997 23.2217 23.9738 25.2636 24.9296 27.0385L25.3698 26.8015ZM23.9997 20.92C23.9997 18.6612 24.4591 16.6898 25.3698 14.9985L24.9296 14.7615C23.9736 16.5368 23.4997 18.5921 23.4997 20.92H23.9997ZM25.3698 14.9985C26.2811 13.3062 27.5539 12.0081 29.1911 11.0985L28.9483 10.6615C27.2254 11.6186 25.885 12.9871 24.9296 14.7615L25.3698 14.9985ZM29.1911 11.0985C30.8291 10.1885 32.7196 9.73 34.8697 9.73V9.23C32.6465 9.23 30.6703 9.70479 28.9483 10.6615L29.1911 11.0985ZM34.8697 9.73C36.9394 9.73 38.7772 10.175 40.3895 11.0592L40.6299 10.6208C38.9356 9.69164 37.0134 9.23 34.8697 9.23V9.73ZM40.391 11.06C42.028 11.9435 43.2862 13.2016 44.1697 14.8387L44.6097 14.6013C43.6799 12.8784 42.3513 11.5498 40.6284 10.62L40.391 11.06ZM44.172 14.8429C45.0814 16.4538 45.5397 18.317 45.5397 20.44H46.0397C46.0397 18.243 45.5647 16.2929 44.6074 14.5971L44.172 14.8429ZM40.2396 18.8354C40.2118 17.3303 39.6644 16.1129 38.5907 15.2088L38.2687 15.5912C39.2216 16.3937 39.7143 17.4697 39.7397 18.8446L40.2396 18.8354ZM38.5936 15.2112C37.5304 14.288 36.2306 13.83 34.7097 13.83V14.33C36.1221 14.33 37.3023 14.752 38.2658 15.5888L38.5936 15.2112ZM34.7097 13.83C33.2671 13.83 32.0332 14.2758 31.0236 15.1731L31.3558 15.5469C32.2662 14.7376 33.379 14.33 34.7097 14.33V13.83ZM31.0239 15.1729C30.0374 16.0466 29.4421 17.2655 29.2222 18.8046L29.7172 18.8754C29.924 17.4279 30.4753 16.3267 31.3554 15.5471L31.0239 15.1729ZM29.4697 19.09H39.9897V18.59H29.4697V19.09ZM68.5572 12.04L68.3776 12.2139L68.379 12.2153L68.5572 12.04ZM70.9972 32V32.25H71.2472V32H70.9972ZM65.3972 32H65.1472V32.25H65.3972V32ZM64.0772 15.72L63.8929 15.8889L63.8953 15.8915L64.0772 15.72ZM56.7972 15.72L56.6154 15.5483L56.6153 15.5485L56.7972 15.72ZM55.4772 32V32.25H55.7272V32H55.4772ZM49.8772 32H49.6272V32.25H49.8772V32ZM49.8772 9.84V9.59H49.6272V9.84H49.8772ZM55.4772 9.84H55.7272V9.59H55.4772V9.84ZM55.4772 12.6H55.2272V13.3286L55.6745 12.7535L55.4772 12.6ZM58.3172 10.36L58.4226 10.5867L58.4249 10.5856L58.3172 10.36ZM62.1572 9.77C64.7391 9.77 66.8043 10.589 68.3776 12.2139L68.7368 11.8661C67.0568 10.131 64.8553 9.27 62.1572 9.27V9.77ZM68.379 12.2153C69.9475 13.8095 70.7472 16.0592 70.7472 19H71.2472C71.2472 15.9674 70.4202 13.5771 68.7354 11.8647L68.379 12.2153ZM70.7472 19V32H71.2472V19H70.7472ZM70.9972 31.75H65.3972V32.25H70.9972V31.75ZM65.6472 32V19.76H65.1472V32H65.6472ZM65.6472 19.76C65.6472 17.9603 65.1969 16.5432 64.2591 15.5485L63.8953 15.8915C64.7175 16.7635 65.1472 18.0397 65.1472 19.76H65.6472ZM64.2615 15.5511C63.3261 14.5307 62.0544 14.03 60.4772 14.03V14.53C61.9399 14.53 63.0683 14.9893 63.8929 15.8889L64.2615 15.5511ZM60.4772 14.03C58.8746 14.03 57.5775 14.5297 56.6154 15.5483L56.9789 15.8917C57.8302 14.9903 58.9865 14.53 60.4772 14.53V14.03ZM56.6153 15.5485C55.6775 16.5432 55.2272 17.9603 55.2272 19.76H55.7272C55.7272 18.0397 56.1569 16.7635 56.9791 15.8915L56.6153 15.5485ZM55.2272 19.76V32H55.7272V19.76H55.2272ZM55.4772 31.75H49.8772V32.25H55.4772V31.75ZM50.1272 32V9.84H49.6272V32H50.1272ZM49.8772 10.09H55.4772V9.59H49.8772V10.09ZM55.2272 9.84V12.6H55.7272V9.84H55.2272ZM55.6745 12.7535C56.3958 11.8261 57.3105 11.104 58.4226 10.5867L58.2118 10.1333C57.0306 10.6827 56.0519 11.4539 55.2799 12.4465L55.6745 12.7535ZM58.4249 10.5856C59.5624 10.0427 60.8053 9.77 62.1572 9.77V9.27C60.7358 9.27 59.4187 9.55727 58.2095 10.1344L58.4249 10.5856ZM79.9225 31.4L79.8175 31.6269L79.821 31.6285L79.9225 31.4ZM76.4825 28.72L76.2813 28.8685L76.2836 28.8715L76.4825 28.72ZM75.1225 25V24.75H74.8574L74.8729 25.0147L75.1225 25ZM80.7625 25L81.0106 24.969L80.9832 24.75H80.7625V25ZM82.0025 27.12L81.849 27.3174L81.8525 27.32L82.0025 27.12ZM87.2425 27.32L87.0997 27.1147L87.0955 27.1178L87.2425 27.32ZM87.0425 24.08L86.9273 24.3022L86.9372 24.3068L87.0425 24.08ZM83.5625 22.88L83.6269 22.6384L83.6213 22.637L83.5625 22.88ZM79.4825 21.64L79.3876 21.8713L79.3897 21.8721L79.4825 21.64ZM76.7625 19.68L76.5718 19.8418L76.5747 19.845L76.7625 19.68ZM76.6825 12.76L76.4787 12.6152L76.4762 12.6188L76.6825 12.76ZM79.7225 10.36L79.6218 10.1312L79.6201 10.1319L79.7225 10.36ZM90.7225 11.48L90.5609 11.6707L90.5628 11.6723L90.7225 11.48ZM93.3225 16.8V17.05H93.591L93.5719 16.7822L93.3225 16.8ZM87.9625 16.8L87.7135 16.8226L87.7342 17.05H87.9625V16.8ZM86.8425 14.72L86.6823 14.9122L86.6912 14.919L86.8425 14.72ZM81.8825 14.48L81.7438 14.2719L81.7391 14.2752L81.8825 14.48ZM82.2025 17.76L82.0844 17.9805L82.0907 17.9836L82.2025 17.76ZM85.6825 18.92L85.6209 19.1623L85.6219 19.1625L85.6825 18.92ZM92.3225 22.16L92.1294 22.319L92.1347 22.325L92.3225 22.16ZM93.5225 25.68H93.7725L93.7725 25.6755L93.5225 25.68ZM92.4425 29.12L92.2387 28.9752L92.2362 28.9788L92.4425 29.12ZM89.4025 31.52L89.501 31.7498L89.5032 31.7488L89.4025 31.52ZM84.8025 32.11C83.0189 32.11 81.4276 31.7954 80.024 31.1715L79.821 31.6285C81.2974 32.2846 82.9594 32.61 84.8025 32.61V32.11ZM80.0275 31.1731C78.6197 30.5214 77.507 29.6522 76.6814 28.5685L76.2836 28.8715C77.1646 30.0278 78.3453 30.9453 79.8175 31.6269L80.0275 31.1731ZM76.6836 28.5715C75.8851 27.4896 75.4492 26.2959 75.3721 24.9853L74.8729 25.0147C74.9558 26.4241 75.4266 27.7104 76.2814 28.8685L76.6836 28.5715ZM75.1225 25.25H80.7625V24.75H75.1225V25.25ZM80.5144 25.031C80.6299 25.9544 81.0802 26.7194 81.849 27.3173L82.156 26.9227C81.4848 26.4006 81.1085 25.7522 81.0106 24.969L80.5144 25.031ZM81.8525 27.32C82.6495 27.9178 83.6247 28.21 84.7625 28.21V27.71C83.7137 27.71 82.8488 27.4422 82.1525 26.92L81.8525 27.32ZM84.7625 28.21C85.8583 28.21 86.7443 27.9915 87.3895 27.5222L87.0955 27.1178C86.5674 27.5019 85.8001 27.71 84.7625 27.71V28.21ZM87.3853 27.5252C88.0563 27.0584 88.4125 26.4394 88.4125 25.68H87.9125C87.9125 26.254 87.6553 26.7283 87.0997 27.1148L87.3853 27.5252ZM88.4125 25.68C88.4125 25.2744 88.3065 24.9097 88.0873 24.5966C87.8695 24.2855 87.5507 24.0403 87.1478 23.8532L86.9372 24.3068C87.281 24.4664 87.5221 24.6611 87.6777 24.8834C87.8318 25.1036 87.9125 25.3656 87.9125 25.68H88.4125ZM87.1576 23.8581C86.4122 23.4716 85.2303 23.066 83.6269 22.6384L83.4981 23.1216C85.0947 23.5473 86.2328 23.9418 86.9274 24.3019L87.1576 23.8581ZM83.6213 22.637C81.9746 22.2386 80.627 21.8286 79.5753 21.4079L79.3897 21.8721C80.4713 22.3048 81.8437 22.7214 83.5037 23.123L83.6213 22.637ZM79.5774 21.4087C78.5746 20.9973 77.6993 20.3673 76.9503 19.515L76.5747 19.845C77.3724 20.7527 78.3104 21.4294 79.3876 21.8713L79.5774 21.4087ZM76.9531 19.5183C76.2549 18.6953 75.8925 17.5718 75.8925 16.12H75.3925C75.3925 17.6548 75.7768 18.9047 76.5719 19.8417L76.9531 19.5183ZM75.8925 16.12C75.8925 14.9438 76.2239 13.873 76.8888 12.9012L76.4762 12.6188C75.7544 13.6737 75.3925 14.8429 75.3925 16.12H75.8925ZM76.8863 12.9048C77.5768 11.933 78.5526 11.1593 79.8249 10.5881L79.6201 10.1319C78.2791 10.734 77.2282 11.5604 76.4787 12.6152L76.8863 12.9048ZM79.8232 10.5888C81.1185 10.0189 82.6428 9.73 84.4025 9.73V9.23C82.5888 9.23 80.9932 9.52776 79.6218 10.1312L79.8232 10.5888ZM84.4025 9.73C87.0003 9.73 89.0441 10.3854 90.5609 11.6707L90.8841 11.2893C89.2542 9.90797 87.0847 9.23 84.4025 9.23V9.73ZM90.5628 11.6723C92.0783 12.931 92.9175 14.6384 93.0731 16.8178L93.5719 16.7822C93.4075 14.4816 92.5134 12.6424 90.8822 11.2877L90.5628 11.6723ZM93.3225 16.55H87.9625V17.05H93.3225V16.55ZM88.2115 16.7774C88.1255 15.8318 87.7197 15.0727 86.9938 14.521L86.6912 14.919C87.2986 15.3807 87.6395 16.0082 87.7135 16.8226L88.2115 16.7774ZM87.0025 14.5279C86.3052 13.9468 85.3758 13.67 84.2425 13.67V14.17C85.2958 14.17 86.0998 14.4265 86.6825 14.9121L87.0025 14.5279ZM84.2425 13.67C83.2032 13.67 82.3608 13.8607 81.7438 14.272L82.0212 14.688C82.5242 14.3526 83.2551 14.17 84.2425 14.17V13.67ZM81.7391 14.2752C81.1371 14.6966 80.8325 15.2941 80.8325 16.04H81.3325C81.3325 15.4526 81.5613 15.01 82.0259 14.6848L81.7391 14.2752ZM80.8325 16.04C80.8325 16.4572 80.9375 16.8355 81.153 17.1664C81.3675 17.4958 81.6828 17.7652 82.0844 17.9804L82.3206 17.5396C81.9756 17.3548 81.7309 17.1376 81.572 16.8936C81.4142 16.6512 81.3325 16.3695 81.3325 16.04H80.8325ZM82.0907 17.9836C82.8621 18.3693 84.0432 18.7612 85.6209 19.1623L85.7441 18.6777C84.1751 18.2788 83.0363 17.8974 82.3143 17.5364L82.0907 17.9836ZM85.6219 19.1625C87.215 19.5608 88.5226 19.9708 89.5476 20.3913L89.7374 19.9287C88.6824 19.4959 87.35 19.0792 85.7431 18.6775L85.6219 19.1625ZM89.5476 20.3913C90.5477 20.8016 91.4079 21.4426 92.1295 22.3189L92.5155 22.0011C91.7438 21.064 90.8173 20.3717 89.7374 19.9287L89.5476 20.3913ZM92.1347 22.325C92.8599 23.1503 93.2467 24.2617 93.2725 25.6845L93.7725 25.6755C93.745 24.165 93.3318 22.9297 92.5103 21.995L92.1347 22.325ZM93.2725 25.68C93.2725 26.9098 92.9277 28.0055 92.2387 28.9752L92.6463 29.2648C93.3973 28.2078 93.7725 27.0102 93.7725 25.68H93.2725ZM92.2362 28.9788C91.5737 29.947 90.6005 30.7198 89.3018 31.2912L89.5032 31.7488C90.8712 31.1469 91.9246 30.3197 92.6488 29.2612L92.2362 28.9788ZM89.304 31.2902C88.0349 31.8341 86.5365 32.11 84.8025 32.11V32.61C86.5885 32.61 88.1567 32.3259 89.501 31.7498L89.304 31.2902ZM97.9994 14.88L97.7778 14.7641L97.7765 14.7668L97.9994 14.88ZM101.639 10.88L101.51 10.6659L101.509 10.667L101.639 10.88ZM111.119 10.48L111 10.6997L111.002 10.7007L111.119 10.48ZM114.119 13L113.918 13.1483L114.369 13.7607V13H114.119ZM114.119 9.84V9.59H113.869V9.84H114.119ZM119.759 9.84H120.009V9.59H119.759V9.84ZM119.759 32V32.25H120.009V32H119.759ZM114.119 32H113.869V32.25H114.119V32ZM114.119 28.76H114.369V27.9597L113.914 28.6177L114.119 28.76ZM111.119 31.36L111.237 31.5807L111.238 31.5798L111.119 31.36ZM101.639 30.92L101.506 31.1314L101.508 31.1324L101.639 30.92ZM97.9994 26.88L97.7757 26.9918L97.7778 26.9959L97.9994 26.88ZM113.319 17.44L113.099 17.5589L113.101 17.5614L113.319 17.44ZM111.159 15.2L111.033 15.4155L111.037 15.4182L111.159 15.2ZM105.359 15.16L105.235 14.9433L105.359 15.16ZM103.199 17.4L102.982 17.2766L102.981 17.2786L103.199 17.4ZM103.199 24.36L102.978 24.4765L102.982 24.4834L103.199 24.36ZM105.359 26.64L105.23 26.8538L105.233 26.8555L105.359 26.64ZM111.159 26.68L111.281 26.8983L111.286 26.8955L111.159 26.68ZM113.319 24.44L113.538 24.5614L113.539 24.5589L113.319 24.44ZM96.9294 20.84C96.9294 18.6333 97.3626 16.6864 98.2223 14.9932L97.7765 14.7668C96.8761 16.5402 96.4294 18.5667 96.4294 20.84H96.9294ZM98.2209 14.9959C99.1087 13.2985 100.292 12.0005 101.77 11.093L101.509 10.667C99.9464 11.6261 98.7033 12.9948 97.7778 14.7641L98.2209 14.9959ZM101.769 11.094C103.274 10.1854 104.949 9.73 106.799 9.73V9.23C104.863 9.23 103.098 9.70794 101.51 10.666L101.769 11.094ZM106.799 9.73C108.419 9.73 109.816 10.0563 111 10.6997L111.239 10.2603C109.969 9.57039 108.487 9.23 106.799 9.23V9.73ZM111.002 10.7007C112.227 11.3521 113.196 12.1687 113.918 13.1483L114.321 12.8517C113.549 11.8046 112.519 10.9413 111.237 10.2593L111.002 10.7007ZM114.369 13V9.84H113.869V13H114.369ZM114.119 10.09H119.759V9.59H114.119V10.09ZM119.509 9.84V32H120.009V9.84H119.509ZM119.759 31.75H114.119V32.25H119.759V31.75ZM114.369 32V28.76H113.869V32H114.369ZM113.914 28.6177C113.219 29.6209 112.251 30.4627 111 31.1402L111.238 31.5798C112.548 30.8706 113.579 29.9791 114.325 28.9023L113.914 28.6177ZM111.002 31.1393C109.79 31.7838 108.379 32.11 106.759 32.11V32.61C108.447 32.61 109.942 32.2696 111.237 31.5807L111.002 31.1393ZM106.759 32.11C104.938 32.11 103.277 31.6424 101.771 30.7076L101.508 31.1324C103.095 32.1176 104.847 32.61 106.759 32.61V32.11ZM101.773 30.7086C100.293 29.7742 99.109 28.462 98.2209 26.7641L97.7778 26.9959C98.7031 28.7647 99.9454 30.1458 101.506 31.1314L101.773 30.7086ZM98.223 26.7682C97.3628 25.0478 96.9294 23.0738 96.9294 20.84H96.4294C96.4294 23.1396 96.8759 25.1922 97.7758 26.9918L98.223 26.7682ZM114.369 20.92C114.369 19.5275 114.096 18.3236 113.538 17.3186L113.101 17.5614C113.609 18.4764 113.869 19.5925 113.869 20.92H114.369ZM113.539 17.3211C112.985 16.2962 112.233 15.5134 111.281 14.9818L111.037 15.4182C111.899 15.8999 112.587 16.6105 113.099 17.5589L113.539 17.3211ZM111.286 14.9845C110.342 14.4289 109.324 14.15 108.239 14.15V14.65C109.234 14.65 110.164 14.9045 111.033 15.4155L111.286 14.9845ZM108.239 14.15C107.157 14.15 106.154 14.4143 105.235 14.9433L105.484 15.3767C106.325 14.8924 107.242 14.65 108.239 14.65V14.15ZM105.235 14.9433C104.312 15.4748 103.561 16.2558 102.982 17.2766L103.417 17.5234C103.957 16.5709 104.647 15.8585 105.484 15.3767L105.235 14.9433ZM102.981 17.2786C102.423 18.2829 102.149 19.4732 102.149 20.84H102.649C102.649 19.5401 102.909 18.4371 103.418 17.5214L102.981 17.2786ZM102.149 20.84C102.149 22.2072 102.423 23.4217 102.978 24.4764L103.421 24.2436C102.909 23.2716 102.649 22.1394 102.649 20.84H102.149ZM102.982 24.4834C103.561 25.5033 104.31 26.2961 105.23 26.8538L105.489 26.4262C104.649 25.9172 103.958 25.19 103.417 24.2366L102.982 24.4834ZM105.233 26.8555C106.176 27.4105 107.18 27.69 108.239 27.69V27.19C107.272 27.19 106.356 26.9361 105.486 26.4245L105.233 26.8555ZM108.239 27.69C109.322 27.69 110.337 27.4258 111.281 26.8982L111.037 26.4618C110.168 26.9476 109.237 27.19 108.239 27.19V27.69ZM111.286 26.8955C112.233 26.3385 112.984 25.5586 113.538 24.5614L113.101 24.3186C112.588 25.2414 111.899 25.9548 111.033 26.4645L111.286 26.8955ZM113.539 24.5589C114.096 23.5287 114.369 22.3128 114.369 20.92H113.869C113.869 22.2472 113.609 23.378 113.099 24.3211L113.539 24.5589ZM135.389 14.44V14.69H135.639V14.44H135.389ZM131.509 14.44V14.19H131.259V14.44H131.509ZM131.509 32V32.25H131.759V32H131.509ZM125.829 32H125.579V32.25H125.829V32ZM125.829 14.44H126.079V14.19H125.829V14.44ZM123.309 14.44H123.059V14.69H123.309V14.44ZM123.309 9.84V9.59H123.059V9.84H123.309ZM125.829 9.84V10.09H126.079V9.84H125.829ZM128.149 2.72L127.989 2.5274L128.149 2.72ZM135.149 0.92H135.399V0.676328L135.155 0.670082L135.149 0.92ZM135.149 5.64L135.144 5.88995L135.399 5.89495V5.64H135.149ZM132.309 6.32L132.142 6.13418L132.309 6.32ZM131.509 9.84H131.259V10.09H131.509V9.84ZM135.389 9.84H135.639V9.59H135.389V9.84ZM135.389 14.19H131.509V14.69H135.389V14.19ZM131.259 14.44V32H131.759V14.44H131.259ZM131.509 31.75H125.829V32.25H131.509V31.75ZM126.079 32V14.44H125.579V32H126.079ZM125.829 14.19H123.309V14.69H125.829V14.19ZM123.559 14.44V9.84H123.059V14.44H123.559ZM123.309 10.09H125.829V9.59H123.309V10.09ZM126.079 9.84V8.72H125.579V9.84H126.079ZM126.079 8.72C126.079 6.04648 126.837 4.12975 128.308 2.9126L127.989 2.5274C126.367 3.87025 125.579 5.95352 125.579 8.72H126.079ZM128.308 2.9126C129.788 1.68751 132.051 1.09064 135.142 1.16992L135.155 0.670082C132.007 0.589353 129.602 1.19249 127.989 2.5274L128.308 2.9126ZM134.899 0.92V5.64H135.399V0.92H134.899ZM135.154 5.39005C133.78 5.36312 132.749 5.58713 132.142 6.13418L132.476 6.50582C132.935 6.09287 133.797 5.86354 135.144 5.88995L135.154 5.39005ZM132.142 6.13418C131.527 6.68695 131.259 7.6456 131.259 8.92H131.759C131.759 7.68774 132.024 6.91304 132.476 6.50582L132.142 6.13418ZM131.259 8.92V9.84H131.759V8.92H131.259ZM131.509 10.09H135.389V9.59H131.509V10.09ZM135.139 9.84V14.44H135.639V9.84H135.139ZM159.458 22.6V22.85H159.67L159.704 22.6411L159.458 22.6ZM143.258 22.6V22.35H142.986L143.009 22.6208L143.258 22.6ZM144.938 26.36L144.769 26.5441L144.938 26.36ZM153.018 25.04V24.79H152.862L152.794 24.9295L153.018 25.04ZM159.058 25.04L159.297 25.1118L159.394 24.79H159.058V25.04ZM155.378 30.32L155.528 30.52L155.53 30.5186L155.378 30.32ZM142.938 30.96L142.814 31.1771L142.818 31.1793L142.938 30.96ZM138.978 26.92L138.758 27.0385L138.759 27.0411L138.978 26.92ZM138.978 14.88L138.758 14.7615L138.978 14.88ZM142.898 10.88L143.019 11.0985L142.898 10.88ZM154.338 10.84L154.218 11.0592L154.219 11.06L154.338 10.84ZM158.218 14.72L157.998 14.8388L158 14.8429L158.218 14.72ZM153.818 18.84V19.09H154.072L154.068 18.8354L153.818 18.84ZM152.258 15.4L152.094 15.5888L152.097 15.5912L152.258 15.4ZM145.018 15.36L145.184 15.5471L145.184 15.5469L145.018 15.36ZM143.298 18.84L143.05 18.8046L143.01 19.09H143.298V18.84ZM159.368 20.44C159.368 21.2293 159.315 21.9352 159.211 22.5589L159.704 22.6411C159.814 21.9848 159.868 21.2507 159.868 20.44H159.368ZM159.458 22.35H143.258V22.85H159.458V22.35ZM143.009 22.6208C143.146 24.2702 143.727 25.5868 144.769 26.5441L145.107 26.1759C144.175 25.3199 143.636 24.1298 143.507 22.5792L143.009 22.6208ZM144.769 26.5441C145.805 27.4965 147.08 27.97 148.578 27.97V27.47C147.195 27.47 146.044 27.0369 145.107 26.1759L144.769 26.5441ZM148.578 27.97C149.654 27.97 150.591 27.7386 151.377 27.264C152.164 26.7891 152.784 26.08 153.242 25.1505L152.794 24.9295C152.371 25.7866 151.812 26.4176 151.119 26.836C150.425 27.2547 149.582 27.47 148.578 27.47V27.97ZM153.018 25.29H159.058V24.79H153.018V25.29ZM158.818 24.9682C158.194 27.0497 156.999 28.7659 155.226 30.1214L155.53 30.5186C157.384 29.1008 158.642 27.2969 159.297 25.1118L158.818 24.9682ZM155.228 30.12C153.465 31.4424 151.293 32.11 148.698 32.11V32.61C151.383 32.61 153.664 31.9176 155.528 30.52L155.228 30.12ZM148.698 32.11C146.602 32.11 144.724 31.652 143.058 30.7407L142.818 31.1793C144.565 32.1347 146.527 32.61 148.698 32.61V32.11ZM143.062 30.7429C141.423 29.8062 140.135 28.4932 139.197 26.7989L138.759 27.0411C139.741 28.8135 141.093 30.1938 142.814 31.1771L143.062 30.7429ZM139.198 26.8015C138.287 25.1097 137.828 23.1516 137.828 20.92H137.328C137.328 23.2217 137.802 25.2636 138.758 27.0385L139.198 26.8015ZM137.828 20.92C137.828 18.6612 138.287 16.6898 139.198 14.9985L138.758 14.7615C137.802 16.5368 137.328 18.5921 137.328 20.92H137.828ZM139.198 14.9985C140.109 13.3062 141.382 12.0081 143.019 11.0985L142.776 10.6615C141.054 11.6186 139.713 12.9871 138.758 14.7615L139.198 14.9985ZM143.019 11.0985C144.657 10.1885 146.548 9.73 148.698 9.73V9.23C146.475 9.23 144.498 9.70479 142.776 10.6615L143.019 11.0985ZM148.698 9.73C150.767 9.73 152.605 10.175 154.218 11.0592L154.458 10.6208C152.764 9.69164 150.841 9.23 148.698 9.23V9.73ZM154.219 11.06C155.856 11.9435 157.114 13.2016 157.998 14.8387L158.438 14.6013C157.508 12.8784 156.179 11.5498 154.457 10.62L154.219 11.06ZM158 14.8429C158.91 16.4538 159.368 18.317 159.368 20.44H159.868C159.868 18.243 159.393 16.2929 158.436 14.5971L158 14.8429ZM154.068 18.8354C154.04 17.3303 153.493 16.1129 152.419 15.2088L152.097 15.5912C153.05 16.3937 153.542 17.4697 153.568 18.8446L154.068 18.8354ZM152.422 15.2112C151.359 14.288 150.059 13.83 148.538 13.83V14.33C149.95 14.33 151.13 14.752 152.094 15.5888L152.422 15.2112ZM148.538 13.83C147.095 13.83 145.861 14.2758 144.852 15.1731L145.184 15.5469C146.094 14.7376 147.207 14.33 148.538 14.33V13.83ZM144.852 15.1729C143.866 16.0466 143.27 17.2655 143.05 18.8046L143.545 18.8754C143.752 17.4279 144.303 16.3267 145.184 15.5471L144.852 15.1729ZM143.298 19.09H153.818V18.59H143.298V19.09Z" fill="#0F0F0F"/>
</svg>
